<?xml version="1.0" encoding="UTF-8"?>
<svg id="Layer_1" data-name="Layer 1" xmlns="http://www.w3.org/2000/svg" viewBox="0 0 283.8 316.8">
  <defs>
    <style>
      .cls-1 {
        fill: #62696a;
      }

      .cls-2 {
        fill: #fefefe;
      }
    </style>
  </defs>
  <path class="cls-2" d="M.06,158.19C.06,106.24,.08,54.29,0,2.35,0,.27,.54,0,2.43,0,95.41,.05,188.39,.05,281.37,0c1.9,0,2.43,.28,2.43,2.35-.07,103.99-.07,207.98,0,311.97,0,2.14-.58,2.48-2.56,2.48-92.89-.05-185.78-.05-278.67,0-1.98,0-2.57-.35-2.56-2.48,.07-52.04,.06-104.08,.06-156.12Zm119.34-12.1l1.64-1.1c1.38-.8,2.76-1.6,4.14-2.41,1.33-.52,2.66-1.05,3.99-1.57,.18,.16,.35,.32,.53,.47-.69,1.56-1.79,3.07-1.99,4.69-.62,4.99,2.98,10.03,7.63,12.08,3.88,1.71,7.81,2.21,11.96,2.08,2.89-.09,5.47-.42,7.64-2.76,2.12-2.28,3.79-2.23,6.51-.56,1.08,.66,2.1,1.44,3.16,2.14,4.16,2.74,14.14,2.14,18.79-1.17,2.82-2.01,5.74-3.93,8.34-6.2,7.98-6.95,9.65-9.98,6.52-20.15-.64-2.08-1.37-4.13-2.02-6.21-.15-.47-.37-1.15-.16-1.45,1.15-1.64,5.71-1.83,7.21-.36,2.22,2.18,4.42,4.37,6.61,6.57,3.64,3.65,8.88,4.29,13.15,1.48,1.29-.85,2.47-1.89,3.55-3,1.79-1.84,3.78-2.13,6.24-1.65,1.61,.32,3.53,.36,5-.23,2.57-1.03,4.94-2.57,7.32-4.02,2.3-1.4,4.79-2.67,6.7-4.51,3.86-3.73,5.75-8.48,6.38-13.85,.8-6.81,1.82-13.43-2.33-19.79-2.34-3.58-5.03-6.43-8.77-8.34-1.04-.53-2.21-.79-3.33-1.17,.78-.93,1.56-1.85,2.33-2.78,.06-.07,.12-.15,.14-.24,.34-2.11,1.74-1.91,3.41-1.81,4.86,.29,7.33-1.63,8.91-6.21,1.15-3.3-.59-5.77-1.95-8.42-.27-.52-.62-1.3-.42-1.7,1.43-2.85,1.3-5.88,1.06-8.87-.46-5.64-4.13-8.74-9.58-8.31-4.16,.33-5.54,2.03-4.72,5.95,.25,1.17-.07,1.45-1.21,1.26-.99-.17-2-.19-3.01-.21-2.28-.04-4.27,.59-5.91,2.33-1.58,1.66-1.85,3.55-1.26,5.57,.4,1.38,3.49,2.69,5.32,2.59,.38-.02,1.11,.4,1.11,.63,.08,2.47,.42,5.02-.09,7.37-.28,1.3-2,2.33-3.19,3.33-.13,.11-1.18-.74-1.68-1.26-1.12-1.18-2.24-1.24-3.69-.54-2.41,1.17-2.77,3.41-3.37,5.6-.18,.68-.57,1.66-1.08,1.83-2.73,.89-3.95,3.33-3.72,5.48,.31,2.84-1.1,3.36-3.02,4.1-1.01,.39-1.88,1.19-2.91,1.48-2.17,.62-1.85,1.77-.51,2.71,2.22,1.56,1.86,3.8,1.69,5.86-.15,1.96-1.39,3.22-3.62,3.26-3.72,.06-7.24-.77-10.46-2.52-.96-.52-2.13-1.86-2.1-2.79,.1-4.03,7.03-8.27,10.92-6.93,.68,.23,1.41,.32,2.12,.47-.59-.53-1.11-1.35-1.79-1.52-1.16-.29-2.5-.44-3.63-.14-1.55,.41-3.09,1.12-4.44,1.99-1.67,1.08-2.73,1.74-4.67-.09-2.66-2.51-6.66-1.47-8.01,1.48l.05-.05c-.72,.5-1.6,.88-2.14,1.53-2.51,3.01-3.38,6.54-2.81,10.38,.32,2.12-.28,3.63-2.26,4.53-.61,.34-1.23,.68-1.84,1.02,.67-.13,1.34-.26,2-.4,.08-.02,.13-.12,.2-.18,1.28-.67,2.53-1.43,3.86-1.97,.81-.33,.98,.1,.4,.74-.15,.14-.3,.28-.45,.42-.58,.39-1.16,.77-1.74,1.16-.54,.36-1.08,.71-1.61,1.07-.93,.55-1.85,1.1-2.78,1.65-.82,.48-1.63,.96-2.45,1.44-.73,.35-1.43,.75-2.19,1.03-.39,.14-.87,.04-1.3,.05,.16-.48,.27-.99,.51-1.43,.1-.19,.5-.2,.71-.36,.21-.16,.35-.41,.52-.62-.32-.05-.69-.23-.96-.13-1.07,.39-2.19,1.34-3.16,1.2-2.69-.38-5.25-.43-7.73,.8-.93,.46-1.17,.16-1.31-.81-.24-1.61-.41-3.32-1.09-4.75-1.76-3.72-5.78-4.47-7.84-1.48-1.37,2-2.68,4.04-4,6.07-.19,.29-.3,.62-.45,.92-.24-.26-.55-.47-.71-.77-3.54-6.76-7.46-8.63-14.84-7.61-2.81,.39-5.85,1-8.51-.85-4.97-3.44-8.72-3.2-12.81,1.23-2.28,2.47-4.22,5.26-6.18,7.99-1.86,2.59-3.94,4.4-7.47,4.03-1.45-.15-3.1,.26-4.47,.85-7.23,3.13-7.57,10.05-5.61,16.23,1.59,5.01,5.18,8.48,9.94,10.64,1.06,.48,1.35,.85,.97,1.97-.35,1.04-.74,1.59-1.92,1.28-1.04-.27-2.11-.45-3.18-.64-2.84-.48-5.66-1.23-8.52-1.36-5.4-.24-8.76,3.48-12.17,6.92-.13,.1-.24,.21-.33,.34-2.13,2.11-4.49,4.04-6.34,6.37-2.79,3.51-4.32,7.54-3.75,12.19,.49,3.93,2.02,7.48,3.56,11.08,1.6,3.73,4.1,5.65,8.19,5.4,1.38-.08,1.17,.26,.62,1.33-.9,1.74-1.6,3.64-1.99,5.56-.53,2.65-.39,2.75-2.93,2.02-3.06-.88-5.77-.27-8.57,1.15-4.08,2.08-6.34,5.61-8.31,9.44-1.08,2.12-.43,4.41,1.54,5.77,1.6,1.1,3.29,1.95,5.35,1.69,.49-.06,1.01,.12,1.52,.18-.29,.43-.52,.94-.88,1.29-1.73,1.64-1.99,3.59-1.22,5.73,.79,2.22,2.35,3.39,4.79,3.22,.36-.02,.73,.05,1.09,.07-.35,.21-.68,.55-1.06,.61-.49,.08-1.01-.04-1.51-.11-5.31-.74-5.74-.46-7.13,4.64-.1,.35-.29,.71-.26,1.05,.1,1.29-.26,1.76-1.74,1.98-3.75,.54-6.61,4.36-6.58,8.15,.04,4.72,1.76,8.92,4.24,12.78,1.54,2.41,3.62,4.18,6.99,3.82,1.51-.16,3.22,.43,4.68,1.05,3.38,1.42,6.75,2.11,10.34,.9,.34-.11,1.13,.08,1.18,.27,1.21,4.6,5.17,4.76,8.56,4.59,9.22-.47,15.98-5.23,20.23-13.33,3.95-7.52-.47-17.42-8.64-19.59-1.13-.3-1.52-.76-1.35-1.85,.1-.63,.22-1.27,.2-1.9-.15-3.97-1.3-7.4-4.77-9.85-3.57-2.53-7.02-2.75-10.59-.17-.09-.12-.2-.24-.31-.34,1.2-2.81,2.77-5.53,3.54-8.46,1.87-7.07,5.1-13.51,8.48-19.92,.82-1.55,1.63-2.18,3.48-2.19,5.58-.03,7.35-1.42,8.92-6.81,.44-1.49,1.06-1.14,2.05-.84,3.19,.96,7.47-.7,8.72-3.31,1.84-3.85-.28-8.5-4.6-9.96-.92-.31-2.12-.15-1.92-1.68,.49-.65,.97-1.3,1.46-1.94,.15-.16,.3-.32,.44-.48,.57-.75,1.15-1.51,1.72-2.26,.16-.16,.32-.33,.48-.49,.58-.75,1.17-1.5,1.75-2.25l.45-.48,3.34-3.32,.81-.84ZM61.43,41.93c-2.62-2.98-6.93-2.59-9.23,.84-1.74,1.44-2.11,3.31-.86,5.06,2.76,3.85,2.75,8.16,2.61,12.56-.05,1.64-.23,3.33,.03,4.93,.7,4.26-1.48,6.78-4.77,8.9-7.41,4.79-14.73,9.73-22.15,14.51-1.69,1.09-3.44,2-5.78,1.45-2.16-.51-4.13,1.04-4.52,3.34-.6,3.57-1.03,7.18-1.27,10.79-.18,2.72,1,3.83,3.43,3.86,2.19,.03,3.18-1.04,3.11-3.81-.05-1.69,.51-2.89,1.56-4.17,1.84-2.25,3.4-4.72,5.15-7.05,2.07-2.75,3.79-5.99,6.43-8.03,4.59-3.55,9.76-6.35,14.71-9.43,1.93-1.2,1.8-1.07,2.44,1.23,1.14,4.08,.04,7.96-.97,11.76-1.88,7.07-4.34,13.99-6.24,21.06-3.86,14.37-9.18,28.22-14.91,41.92-1.22,2.92-2.7,5.46-6.06,6.55-2.32,.75-2.97,2.87-2.16,5.33,.43,1.28,.92,2.55,1.45,3.8,1.82,4.25,5.9,6.42,10.4,5.58,4.17-.78,6.02-3.74,4.79-7.8-.47-1.55-1.3-3.01-1.65-4.58-.3-1.33-.41-2.82-.14-4.13,.55-2.64,1.63-5.18,2.12-7.82,1.17-6.41,1.97-12.89,3.21-19.28,2.98-15.4,8.42-30.09,13.44-44.89,1.26-3.73,1.39-3.67,4.65-1.58,.6,.39,1.26,.72,1.94,.96,4.27,1.47,8.67,1.12,12.96,.46,6.73-1.04,12.76-4.15,18.72-7.25,4.71-2.45,8.55-5.97,10.29-11.19,1.53-4.57-1.35-8.43-6.13-8.69-5.72-.31-11.32,.41-16.64,2.37-6.55,2.41-12.95,5.24-19.4,7.92-3.13,1.3-4.36,.62-4.19-2.78,.24-4.7,.96-9.33,3.47-13.51,1.8-2.98,2.3-6.08,.12-9.17Zm95.33,131.57l-.05-.05c.68,1.72,1.43,3.42,2.01,5.17,.28,.85,.21,1.8,.37,2.7,1.37,7.56,.21,7.52-5.29,9.74-9.02,3.64-18.01,7.39-26.15,12.77-2.95,1.95-5.64,3.79-9.4,3.22-1.46-.22-2.39,.65-2.85,2.29-1.08,3.89,.11,7.43,1.66,10.77,1.25,2.69,5.13,2.39,6.36-.33,.51-1.12,.48-2.48,.9-3.65,.45-1.28,.83-2.84,1.78-3.65,5.15-4.36,10.6-8.37,15.67-12.81,3.56-3.11,7.47-5.36,11.83-7.04,1.74-.67,3.14-.29,4.18,.86,1.18,1.31,2.42,2.86,2.85,4.5,.98,3.74,1.99,7.6,2.06,11.42,.16,8.47-.18,16.96-.48,25.43-.12,3.34-.67,6.67-1.07,9.99-.43,3.5-.53,7.09-1.46,10.46-1.35,4.85-3.45,9.48-4.97,14.29-1.11,3.5-2.31,6.82-5.04,9.45-.88,.84-1.31,2.15-1.93,3.25-1.51,2.68-1.01,5.16,.56,7.67,1.74,2.78,4.6,3.65,7.33,4.87,2.49,1.11,4.51,.06,6.3-1.31,.76-.58,1.32-2.07,1.18-3.03-.29-1.93-.7-4.1-1.82-5.61-2.38-3.22-1.83-6.71-1.74-10.21,.06-2.1,.22-4.2,.48-6.28,.45-3.61,1.05-7.19,1.51-10.8,.97-7.48,2.35-14.95,2.73-22.46,.48-9.48,.12-19.01,.18-28.52,0-1.34,.19-2.73,.58-4.01,.43-1.39,1.42-2.16,2.88-1.08,3.65,2.7,7.88,3.35,12.21,3.19,4.08-.14,8.14-.73,12.22-1.03,7.81-.57,14.78-3.5,21.22-7.71,1.78-1.16,3.48-2.82,4.53-4.64,2.37-4.12,2-6.96-1.06-9.21-2.23-1.64-5.28-3-7.97-3.01-6.17-.04-12.43,.35-18.49,1.43-7.82,1.4-15.48,3.65-23.21,5.56-1.8,.44-3.48-.3-3.42-1.96,.18-4.58-.91-9.22,1-13.74,1.8-4.28-.18-6.73-4.75-6.33-.64,.06-1.28,.07-1.92,.1-2.76,.11-4.4,1.3-4.82,3.51-.5,2.62,.66,4.67,3.29,5.82Z"/>
  <path class="cls-1" d="M183.64,100.45c1.99-.9,2.58-2.41,2.26-4.53-.57-3.84,.3-7.37,2.81-10.38,.54-.65,1.42-1.03,2.14-1.53-.49,.74-.97,1.49-1.47,2.22-1.8,2.63-2.59,5.55-2.4,8.7,.14,2.24,.62,2.38,2.73,2.13,1.93-.24,3.09-1.42,4.55-2.44,2.56-1.77,4.56-3.68,5.28-6.85,.64-2.8-.85-5.37-3.71-5.27-1.69,.06-3.35,1.01-5.02,1.56,1.36-2.95,5.35-3.99,8.01-1.48,1.95,1.83,3,1.17,4.67,.09,1.35-.87,2.89-1.59,4.44-1.99,1.13-.3,2.46-.14,3.63,.14,.68,.17,1.2,.99,1.79,1.52-.71-.15-1.44-.24-2.12-.47-3.9-1.34-10.82,2.9-10.92,6.93-.02,.94,1.14,2.27,2.1,2.79,3.23,1.75,6.74,2.58,10.46,2.52,2.23-.04,3.46-1.3,3.62-3.26,.16-2.05,.53-4.29-1.69-5.86-1.34-.94-1.66-2.09,.51-2.71,1.03-.29,1.9-1.1,2.91-1.48,1.91-.73,3.33-1.26,3.02-4.1-.23-2.14,.99-4.59,3.72-5.48,.51-.17,.9-1.15,1.08-1.83,.6-2.2,.96-4.44,3.37-5.6,1.45-.7,2.57-.64,3.69,.54,.5,.52,1.55,1.37,1.68,1.26,1.2-1,2.91-2.03,3.19-3.33,.51-2.36,.18-4.91,.09-7.37,0-.23-.74-.65-1.11-.63-1.83,.1-4.92-1.21-5.32-2.59-.59-2.02-.32-3.91,1.26-5.57,1.65-1.74,3.63-2.36,5.91-2.33,1.01,.02,2.02,.04,3.01,.21,1.14,.19,1.46-.1,1.21-1.26-.83-3.92,.55-5.62,4.72-5.95,5.46-.43,9.13,2.67,9.58,8.31,.24,2.99,.38,6.02-1.06,8.87-.2,.4,.15,1.19,.42,1.7,1.36,2.64,3.1,5.11,1.95,8.42-1.59,4.58-4.06,6.5-8.91,6.21-1.66-.1-3.06-.3-3.41,1.81-.01,.08-.08,.17-.14,.24-.78,.93-1.55,1.86-2.33,2.78,1.11,.38,2.29,.64,3.33,1.17,3.74,1.91,6.43,4.76,8.77,8.34,4.16,6.36,3.13,12.98,2.33,19.79-.63,5.37-2.52,10.12-6.38,13.85-1.91,1.84-4.4,3.11-6.7,4.51-2.38,1.45-4.75,3-7.32,4.02-1.48,.59-3.4,.55-5,.23-2.46-.49-4.45-.19-6.24,1.65-1.08,1.11-2.26,2.16-3.55,3-4.27,2.81-9.51,2.16-13.15-1.48-2.2-2.2-4.4-4.39-6.61-6.57-1.5-1.47-6.06-1.28-7.21,.36-.21,.3,.02,.98,.16,1.45,.65,2.08,1.38,4.13,2.02,6.21,3.13,10.17,1.46,13.2-6.52,20.15-2.6,2.27-5.52,4.19-8.34,6.2-4.65,3.31-14.63,3.91-18.79,1.17-1.06-.7-2.08-1.47-3.16-2.14-2.73-1.68-4.4-1.73-6.51,.56-2.17,2.34-4.75,2.67-7.64,2.76-4.15,.13-8.08-.37-11.96-2.08-4.65-2.05-8.25-7.09-7.63-12.08,.2-1.62,1.3-3.13,1.99-4.69,.19-.25,.38-.5,.57-.74-.37,.09-.73,.18-1.1,.27-1.33,.52-2.66,1.05-3.99,1.57-.12-.14-.24-.29-.37-.43,2.96-1.53,6.03-2.86,8.84-4.63,4.21-2.66,8.13-5.77,12.36-8.41,5.13-3.2,10.45-6.1,15.67-9.16,.37-.22,.59-.69,.89-1.05-.49,.05-1.03-.01-1.46,.18-2.39,1.09-4.75,2.25-7.12,3.38,.28-.41,.46-.98,.85-1.19,1.97-1.09,4.01-2.05,5.97-3.16,.38-.22,.52-.88,.76-1.34-.48-.02-.99-.15-1.45-.05-.97,.2-1.92,.52-2.88,.79,1.13-.67,2.29-1.3,3.37-2.05,.28-.2,.3-.77,.44-1.17-.36-.04-.81-.23-1.07-.09-2.65,1.47-5.43,2.51-8.32,3.47-2.04,.68-3.61,2.74-5.4,4.18-.2,.14-.41,.29-.61,.43,.29-.05,.59-.09,.88-.14,1.35-.53,2.68-1.09,4.04-1.59,1.87-.68,3.75-1.32,5.63-1.98-2.24,1.11-4.47,2.24-6.72,3.33-4.79,2.32-9.49,4.85-14.41,6.84-4.57,1.85-8.81,4.15-12.79,7.03-.47,.34-1.24,.26-1.88,.38,.02-.44,.79-1.55-.47-1.02-2.74,1.15-5.73,2.16-7.94,4.03-3.64,3.08-6.92,6.64-9.09,11.03-1.88,3.8-3.85,7.56-5.67,11.39-.99,2.09-1.75,4.28-2.61,6.43-.11,.11-.21,.22-.32,.33,.09-.13,.19-.26,.28-.38,.91-.37,1.81-.77,2.74-1.07,.28-.09,.66,.1,.99,.16-.14,.23-.22,.53-.42,.67-2.8,1.95-5.56,3.98-8.46,5.78-1.11,.69-.77,1.18-.33,1.93,.58,.99,1.12,2.01,1.68,3.01-.55,.26-1.26,.38-1.62,.8-.68,.81-1.19,1.78-1.72,2.71-1.57,2.72-3.12,5.45-4.7,8.17-.63,1.08,.08,1.29,.9,1.46-1.99,3.73-3.76,7.61-6.07,11.14-1.33,2.03-2.3,4.02-2.66,6.35-.06,.42,.05,.86,.08,1.3,.28-.34,.62-.65,.82-1.03,2.61-4.86,5.19-9.74,7.84-14.58,.35-.64,1.09-1.06,1.65-1.58-.03,.37-.06,.73-.09,1.1-.15,.1-.36,.16-.43,.3-3.4,6.39-6.81,12.79-10.16,19.21-.28,.53-.32,1.22-.29,1.83,0,.17,.83,.54,.95,.44,.54-.47,.97-1.08,1.43-1.64,4.75-5.83,6.63-12.92,8.73-19.91-.06-.43-.13-.86-.19-1.29,.15-.62,.18-1.31,.49-1.85,1.55-2.76,3.21-5.45,4.74-8.22,.57-1.04,.88-2.22,1.3-3.34-.71,.82-1.42,1.65-2.13,2.47,.37-1.3,.73-2.59,1.1-3.89,.3,0,.69-.12,.87,.03,3,2.32,6.12,1.67,8.89-.1,2.88-1.84,4.35-4.62,3.14-8.21-.09-.26-.19-.53-.18-.79,.01-.25,.17-.48,.27-.72,.24,.19,.52,.35,.71,.59,.67,.85,1.12,2.03,1.98,2.55,2.37,1.42,4.54,.51,6.53-1.06,2.01-1.58,2.15-3.74,1.77-5.96-.49-2.8-2.99-3.58-5.17-4.27-1.94-.61-2.78,1.3-3.74,2.6-.43,.58-.8,1.2-1.28,1.74-.23,.26-.65,.36-.98,.54,.04-.36-.06-.81,.13-1.07,1.58-2.19,3.2-4.34,4.81-6.51,.15,.13,.29,.26,.44,.39-.2,1.53,.99,1.36,1.92,1.68,4.32,1.47,6.43,6.11,4.6,9.96-1.24,2.61-5.52,4.27-8.72,3.31-.99-.3-1.62-.65-2.05,.84-1.58,5.38-3.35,6.78-8.92,6.81-1.85,.01-2.66,.64-3.48,2.19-3.38,6.41-6.61,12.85-8.48,19.92-.77,2.93-2.34,5.64-3.54,8.46-.1,.14-.2,.28-.3,.43,.21-.03,.41-.06,.62-.09,3.57-2.59,7.02-2.36,10.59,.17,3.47,2.46,4.62,5.88,4.77,9.85,.02,.63-.1,1.27-.2,1.9-.17,1.08,.22,1.54,1.35,1.85,8.17,2.17,12.59,12.07,8.64,19.59-4.25,8.1-11.01,12.86-20.23,13.33-3.4,.17-7.35,.02-8.56-4.59-.05-.19-.84-.39-1.18-.27-3.59,1.2-6.96,.52-10.34-.9-1.46-.62-3.17-1.21-4.68-1.05-3.37,.37-5.45-1.41-6.99-3.82-2.47-3.86-4.2-8.06-4.24-12.78-.03-3.8,2.83-7.61,6.58-8.15,1.48-.22,1.84-.69,1.74-1.98-.03-.34,.17-.7,.26-1.05,1.39-5.11,1.81-5.38,7.13-4.64,.5,.07,1.03,.19,1.51,.11,.38-.06,.71-.4,1.06-.61-.36-.03-.73-.1-1.09-.07-2.44,.17-4-1.01-4.79-3.22-.76-2.13-.51-4.09,1.22-5.73,.37-.35,.59-.85,.88-1.29-.51-.07-1.03-.25-1.52-.18-2.06,.27-3.75-.59-5.35-1.69-1.97-1.36-2.63-3.65-1.54-5.77,1.96-3.83,4.22-7.36,8.31-9.44,2.8-1.43,5.51-2.04,8.57-1.15,2.53,.73,2.39,.63,2.93-2.02,.39-1.91,1.09-3.82,1.99-5.56,.55-1.07,.76-1.41-.62-1.33-4.09,.25-6.59-1.67-8.19-5.4-1.55-3.6-3.08-7.14-3.56-11.08-.58-4.65,.95-8.68,3.75-12.19,1.86-2.33,4.21-4.26,6.34-6.37,.12,.19,.24,.39,.36,.58-1.21,1.24-2.4,2.5-3.62,3.72-4.76,4.79-7.05,10.37-5.22,17.1,.59,2.17,1.67,4.22,2.54,6.31,2.23,5.39,4.2,6.49,9.78,5.68,1.08-.16,1.4-.26,.48-1.13-1.06-1.01-2-2.15-3.13-3.08-5.64-4.65-6.46-13.32-2.4-19.39,4.35-6.5,10.51-10.41,18.12-12.14,.72-.16,1.36-.7,2.04-1.07-.02,1.5-.2,3.01,0,4.49,.32,2.49,2.67,4.8,4.99,5.05,2.65,.29,2.6-2.24,3.62-3.63,.05-.07,.09-.16,.12-.25,.55-1.62,1.43-3.3-.06-4.82-1.48-1.52-3.32-2.14-5.46-1.6-1.08,.27-2.16,.53-3.24,.8-.1-.68-.12-1.93-.31-1.96-3.82-.51-7.75-1.57-11.33,.8-2.17,1.44-4.23,3.05-6.34,4.58-.2-.13-.4-.27-.59-.4,3.42-3.44,6.77-7.16,12.17-6.92,2.85,.13,5.68,.87,8.52,1.36,1.06,.18,2.13,.36,3.18,.64,1.18,.31,1.57-.24,1.92-1.28,.38-1.12,.08-1.49-.97-1.97-4.77-2.16-8.35-5.63-9.94-10.64-1.96-6.18-1.62-13.11,5.61-16.23,1.37-.59,3.02-1,4.47-.85,3.53,.37,5.61-1.44,7.47-4.03,1.96-2.74,3.9-5.53,6.18-7.99,4.09-4.43,7.84-4.67,12.81-1.23,2.67,1.85,5.7,1.24,8.51,.85,7.38-1.02,11.3,.85,14.84,7.61,.16,.3,.47,.52,.71,.77,.15-.31,.26-.64,.45-.92,1.32-2.03,2.63-4.07,4-6.07,2.06-2.99,6.08-2.24,7.84,1.48,.68,1.44,.85,3.14,1.09,4.75,.14,.96,.38,1.27,1.31,.81,2.48-1.23,5.04-1.18,7.73-.8,.97,.14,2.08-.82,3.16-1.2,.27-.1,.64,.08,.96,.13-.17,.21-.31,.46-.52,.62-.21,.16-.6,.17-.71,.36-.24,.44-.35,.95-.51,1.43,.44-.01,.91,.09,1.3-.05,.76-.27,1.46-.68,2.19-1.03,.14,.15,.29,.31,.43,.46-.81,.54-1.66,1.04-2.42,1.64-.18,.14-.18,.68-.06,.94,.07,.15,.59,.21,.84,.13,.5-.17,.93-.53,1.42-.72,2.15-.82,4.32-1.61,6.48-2.42-.58,.39-1.12,.85-1.74,1.16-1.86,.94-3.77,1.77-5.59,2.77-.36,.2-.41,.94-.6,1.43,.44,.04,.95,.25,1.29,.09,3.6-1.71,7.24-3.4,9.97-6.45,1.98-1.13,3.97-2.26,5.95-3.39,2.15-.78,4.3-1.55,6.44-2.36,.2-.07,.29-.41,.43-.63-.24-.04-.54-.2-.72-.11-2.05,1.03-4.07,2.1-6.11,3.16-2.11,.99-4.22,1.98-6.33,2.97-.66,.1-1.31,.21-1.97,.31,4.23-2.2,8.46-4.39,12.68-6.6,1.84-.96,3.67-1.94,5.48-2.94,.3-.17,.53-.46,.79-.7-.33-.16-.65-.33-.98-.48-2.14-1.01-4.02-.8-6.08,.58-3.23,2.16-6.7,3.96-10.07,5.92-.17-.15-.35-.31-.52-.46,.58-.64,.41-1.06-.4-.74-1.33,.54-2.58,1.3-3.86,1.97-.12-.15-.24-.29-.36-.44Zm-93.54,113.24c.18,.19,.36,.37,.54,.56,3.48,5.47,2.44,11.83-1.24,16.35-.22,.27-.41,.58-.61,.87,.43,.01,1.08,.21,1.26,0,1.28-1.46,2.74-2.85,3.62-4.54,2.37-4.5,1.13-10.2-2.62-13.21-.18-.15-.35-.3-.53-.45-.42-.03-.83-.06-1.25-.09,.27,.17,.54,.33,.81,.5Zm-5.36,20.75c-2.02,.74-4.04,1.48-6.07,2.21-.41,.15-.84,.27-1.26,.4,.46,.2,.96,.62,1.37,.55,1.31-.25,2.67-.52,3.85-1.12,.83-.42,1.39-1.38,2.07-2.1,.3-.05,.6-.1,.9-.16-.04-.08-.07-.16-.11-.24-.25,.15-.5,.3-.75,.45ZM232.63,78.51c.05,.32,.11,.64,.16,.95,.5-.44,1-.88,1.5-1.32l-.61-.69c-.1-.13-.32-.28-.3-.38,.16-.64,.36-1.26,.55-1.89-.57,.4-1.15,.8-1.71,1.21-1.18,.89-2.34,1.79-3.51,2.68,.29-.8,.59-1.6,.88-2.4,.68-.51,1.37-1.01,2.03-1.53,.03-.02-.11-.26-.17-.4-.74,.51-1.49,1.01-2.23,1.52-.59,.37-1.45,.6-1.74,1.13-1.11,2.09-3,2.78-5.08,3.52-1.92,.68-3.67,1.89-5.43,2.96-.33,.2-.36,.87-.53,1.32,.42-.09,.87-.11,1.26-.27,1.13-.45,2.24-.96,3.36-1.44-.87,.74-2,1.32-2.54,2.25-.46,.81-.53,2.09-.24,3,.19,.6,1.29,1.13,2.06,1.26,2.16,.37,4.08-.12,5.69-1.83,1.03-1.09,1.52-2.31,.7-3.38-.67-.87-1.96-1.45-3.08-1.74-.78-.2-1.74,.3-2.62,.48,.17-1.71,1.64-1.39,2.68-1.65,1.11-.28,2.26-.41,3.39-.61l.18,1.62c.51-.26,1.09-.44,1.51-.79,.61-.51,1.07-1.19,1.65-1.73,.69-.64,1.44-1.22,2.16-1.83Zm-49.45,31.89c-3.93,.65-4.43,1.22-4.33,4.95,0,.36-.12,.73-.06,1.07,.07,.38,.27,.73,.42,1.1,.4-.26,1.01-.42,1.17-.78,.97-2.1,1.83-4.24,2.74-6.37,.11-.11,.21-.22,.32-.33-.08,0-.17-.02-.25-.03,0,.13,0,.27,0,.4Zm49.69-36.39c2.04-2.43,4.23-4.74,6.06-7.31,1.72-2.42,2.52-5.24,1.66-8.26-.29-1.02-.72-1.99-1.09-2.99-.11,.99-.41,2.01-.28,2.97,.56,4.3-1.13,7.71-3.87,10.84-1.11,1.27-1.88,2.84-2.8,4.27-.14,.16-.29,.32-.43,.49,.25,0,.5,0,.75-.01Zm9.25,16.98c-.19-.06-.38-.13-.58-.19,.03,.21,.06,.42,.09,.63,1.05,2.55,1.84,5.13,1.16,7.94-2.34,9.63-9.01,15.24-17.96,18.08-7.55,2.4-15.34,1.54-22.93-.51-3.22-.87-5.5-2.97-6.03-6.35-.26-1.64,.22-3.4,.33-5.11,.02-.33-.09-.66-.15-1-.28,.18-.69,.29-.82,.54-.74,1.46-1.73,2.88-2.03,4.44-.52,2.71,.05,6.99,3.86,8.09,3.04,.88,6.05,1.84,9.11,2.62,5.49,1.39,11.04,2.65,16.72,1.14,8.99-2.4,16.62-6.63,20.33-15.78,2.02-4.98,3.11-9.98-1.1-14.53Zm-106.27,18.86c-.55-.29-1.1-.58-1.64-.89-3.01-1.7-6.23-2.91-9.67-2.3-6.06,1.08-11.38,3.75-15.63,8.34-4.75,5.11-5.1,10.56-.85,16,.5,.64,1.6,.79,2.43,1.17,.04-.72,.24-1.47,.1-2.15-1.24-6.38,.2-10.06,6.06-13.06,2.84-1.45,6.16-2.07,9.33-2.72,3.3-.67,6.08,.78,7.64,3.63,1,1.81,1.14,4.1,1.69,6.16,.15,.55,.36,1.08,.55,1.61,.47-.21,1.01-.33,1.41-.64,3.1-2.41,3.95-6.13,2.05-9.75-1-1.91-2.33-3.64-3.51-5.45,.37,.02,.94-.12,1.09,.07,1.2,1.58,2.31,3.22,3.46,4.84,.2,.28,.45,.53,.67,.79,.11-.37,.33-.75,.33-1.12-.05-2.86-5.8-8.33-8.8-8.4-.27,0-.54,.07-.81,.11,.27,.17,.52,.36,.8,.51,2.81,1.56,2.85,1.59,3.29,3.23Zm40.65,11.52c.36-2.58,1.07-5.16,1.02-7.73-.09-4.95-3.32-8.07-7.45-7.65-1.25,.13-2.58,.22-3.68,.74-.86,.4-1.55,1.34-2.08,2.19-.76,1.21-1.35,2.55-1.94,3.86-.22,.49-.31,1.09-.3,1.64,.03,3.15,2.06,5.13,4.31,6.86,2.68,2.07,7.1,2.25,9.62,.59-.01,.38,.12,1-.06,1.11-2.38,1.45-.77,2.32,.51,2.99,4.04,2.11,6.12,5.55,6.97,9.86,1.12,5.65-.04,9.83-4.25,12.44-4.85,3-9.73,5.71-15.4,6.77-.49,.09-.95,.4-1.42,.6,.31,.33,.55,.8,.93,.96,.98,.41,2.02,.67,3.03,1.02,5.71,1.99,11.49,1.99,16.5-1.35,4.5-3.01,8.46-6.87,12.44-10.59,2.08-1.94,3.52-4.53,3.03-7.57-.5-3.04-1.09-6.09-2.02-9.02-1.34-4.22-1.69-4.19-6.1-4.5-3.42-.23-6.65-1.15-8.63-4.37-1.04-1.68-2.56-1.58-3.69,.15-.28,.44-.88,.67-1.33,1Zm80.84-24.22c0-.55-.07-1.11,0-1.64,1.07-7.57-6.31-16.41-13.23-18.83-3.05-1.06-5.92-.93-8.23,1.67-2,2.25-3.97,4.52-5.92,6.81-.27,.31-.36,.77-.53,1.16,.41-.07,.82-.15,1.23-.22,2.09-.4,4.28-1.42,6.25-1.09,4.48,.75,9.83,7.92,10.06,12.5,.3,6.03-2.35,10.93-5.82,15.49-2.86,3.76-7.14,5.67-11.24,7.56-4.81,2.21-9.87,3.76-15.38,2.56-3.55-.77-7.18-1.19-10.78-1.74-.33-.05-.69,.06-1.04,.1,.23,.24,.45,.5,.7,.72,1.87,1.74,3.64,3.61,5.65,5.18,1.91,1.49,3.95,2.98,6.16,3.92,3.33,1.4,6.28,.22,8.54-2.47,2.34-2.79,4.84-4.24,8.81-3.24,3.43,.87,6.74-.17,9.55-2.83,1.66-1.58,4.02-2.41,6.01-3.65,1.12-.7,2.33-1.39,3.19-2.37,4.93-5.6,5.83-12.5,6.03-19.58Zm-43.94,20.39c8.46-.09,15.76-1.41,21.56-7.21,3.85-3.84,6.92-7.9,6.54-13.81-.39-6.03-4.49-10.35-12.33-8.02-1.22,.36-1.99,.93-.98,2.55,4.6,7.37-2.09,14.39-7.51,16.01-4.52,1.35-8.61,.17-12.3-2.67-1.42-1.09-2.39-2.25-1.63-4.16,.05-.12-.47-.65-.55-.62-2.31,1.05-4.82,1.84-6.85,3.29-4.07,2.9-3.6,9.21,.74,11.69,4.33,2.48,9.2,2.59,13.31,2.94Zm-33,20.21c-.05-3.14-1.62-6.49-3.9-8.09-.18-.13-.96,.14-.98,.3-.94,6.45-5.1,9.78-11.02,11.41-4.06,1.12-8.12,1.98-12.3,.34-3.87-1.52-6.27-5.13-6-9.32,.02-.31-.11-.63-.18-.95-.32,.17-.66,.31-.96,.51-2.38,1.62-3.01,4.17-3.24,6.74-.15,1.63-.12,3.51,.55,4.95,2.57,5.48,9.96,9.45,16.01,8.98,4.76-.37,9.34-1.3,13.62-3.52,4.68-2.43,8.44-5.48,8.4-11.35Zm-97.06,119.24c2.61-.32,5.26-.44,7.82-1,3.39-.73,5.97-2.99,8.56-5.16,7.26-6.07,6.89-15.14,2.53-21.3-1.52-2.15-3.85-2.71-6.12-2.98-.63-.08-1.49,1.83-2.25,2.83-.16,.22-.31,.45-.47,.67-.63,.86-.78,1.43,.11,2.49,2.49,2.99,3.48,8.07,.4,11.78-3.27,3.93-7.06,6.44-12.39,6.16-2.31-.12-3.55,1.72-2.77,3.91,.77,2.17,2.39,2.86,4.58,2.59ZM124.76,102.24c3.76-.4,7.2,.24,10.54,1.7,6.16,2.68,9.11,7.29,8.83,13.99-.03,.66,.2,1.33,.3,1.99,.57-.42,1.17-.8,1.69-1.27,2.85-2.52,3.18-6.15,3.26-9.44,.09-3.61-1.11-6.84-5.01-8.93-3.76-2.02-7.49-1.6-11.16-1.23-3.23,.33-5.76-.1-8.39-1.97-3.49-2.49-6.29-2.15-9.25,.93-2.01,2.09-3.72,4.48-5.52,6.76-.36,.46-.57,1.04-.85,1.57,.57-.18,1.18-.26,1.69-.55,4.35-2.44,8.82-4.4,13.86-3.55Zm-14.74,35.56c-.18-.11-.36-.22-.53-.33,.05-3.21-.42-3.65-2.86-2.24-1.53,.88-1.96,1.07-3.37-.65-4.28-5.25-4.16-14.54-.91-19.8,.71-1.15,1.31-2.36,1.96-3.54-1.39,.06-2.79,.11-4.18,.17-.37,.01-.73,.03-1.1,.06-4.65,.31-8.07,3.59-8.18,8.21-.06,2.35,.16,4.76,.68,7.04,1.15,5,6.89,9.95,11.42,10.21,.18,.01,.54,.63,.46,.81-.37,.82-.98,1.54-1.29,2.37-.18,.47-.13,1.21,.13,1.62,.74,1.17,1.64,2.24,2.48,3.34,.89-1.12,1.78-2.25,2.68-3.36,.23-.28,.58-.48,.77-.78,.63-1.03,1.22-2.09,1.82-3.13Zm19.21,10.02c.15,.58,.26,1.72,.74,2.66,4.89,9.74,14.59,10.23,22.8,5.76,.32-.17,.45-.68,.67-1.03-.41-.13-.83-.25-1.24-.39-6.09-2.09-11.18-5.26-12.82-12.05-.36-1.49-.54-3.03-.76-4.55-.17-1.22-.62-1.7-1.77-.88-.96,.69-1.99,1.29-2.87,2.06-2.4,2.13-4.7,4.35-4.76,8.41Zm-65.86,59.66c2.59-.83,5.25-1.28,7.46-2.52,1.6-.9,2.39-3.13,3.91-4.29,2.89-2.19,1.41-4.91,.87-7.21-.24-1.03-2.49-2.09-3.91-2.21-2.08-.18-4.34,.15-6.32,.83-4.13,1.41-6.54,4.74-8.29,8.56-1.04,2.27-.71,3.77,1.44,5.06,1.39,.83,3.1,1.15,4.86,1.77Zm4.42,39.53c-2.3-.73-4.73-1.2-6.87-2.25-6.38-3.12-7.67-8.98-3.46-14.62,.36-.48,.4-1.2,.59-1.81-.76-.03-1.67-.35-2.27-.05-3.54,1.77-5.38,5.85-4.77,9.89,.6,4,2.65,7.33,4.96,10.47,.63,.85,2.28,1.62,3.26,1.42,2.45-.5,4.42,.49,6.58,1.14,2.32,.69,4.78,1.35,7.17,1.34,4.91-.02,9.01-6.16,7.39-10.52-.45-1.21-.66-1.6-1.65-.38-2.75,3.42-6.4,4.98-10.94,5.38Zm7.17-17.43c-.64,0-1.28,.05-1.92,0-5.8-.54-7.73-2.59-7.56-8.22,.02-.8,.04-.94-.76-1.17-2.44-.68-2.51-.76-2.75,1.82-.13,1.42,.14,2.88,.16,4.33,.03,1.95,1.01,2.95,2.92,2.69,3.86-.53,6.45,1.27,8.47,4.28,.89,1.32,2.14,1.79,3.73,1.84,4.83,.15,12.71-5.31,13.92-9.96,.44-1.7,.72-3.64,.34-5.3-.76-3.33-3.53-5.27-6.36-6.7-1.18-.6-2.97-.16-4.43,.08-.54,.09-.94,.97-1.41,1.49,.55,.18,1.09,.39,1.66,.52,4.29,1.02,6.37,4.72,4.17,8.22-2.27,3.63-5.49,6.25-10.18,6.09Zm36.58-102.25c.58,1.08,1.06,3,1.75,3.08,2.22,.23,4.52-.18,6.77-.44,.27-.03,.46-.67,.68-1.04,.05-.08,.07-.17,.11-.25,1.64-3.61,4.44-3.95,6.79-.67,.75,1.05,1.27,.98,2.2,.55,3.15-1.47,4.38-3.59,3.71-6.47-.9-3.86-3.08-5.89-6.53-5.77-1.99,.07-4.06,.24-5.94,.83-4.75,1.49-9.17,4.4-9.53,10.19Zm105.6-21.85c3.39-.09,6.28-1.56,8.33-4.04,1.23-1.5,1.73-3.75,2.11-5.74,.33-1.77-1.16-2.87-2.65-3.34-1.4-.43-2.67-.24-3.34,1.68-.66,1.91-2.38,2.21-4.34,1.33-.45-.2-1.11-.34-1.5-.15-1.88,.88-3.8,1.74-5.51,2.89-1.92,1.29-1.88,3.28-.12,4.8,2.01,1.73,4.35,2.59,7.03,2.58Zm-54.06,.71c-.62-1.95-1.29-4.39-2.18-6.75-.63-1.65-1.82-1.7-3.21-.7-2.82,2.02-4.9,4.64-5.82,7.96-.69,2.49-.71,5.17-1.39,7.67-.41,1.5,.15,1.71,1.19,1.43,2.51-.68,5.02-1.43,7.46-2.35,3.09-1.16,3.88-3.82,3.96-7.26Zm93.58-58.37c-.66-2.31-1.08-4.73-2.04-6.91-1.29-2.93-7.09-4.19-9.64-2.28-.43,.33-.85,1.05-.81,1.56,.32,3.88,.86,7.87,3.55,10.79,1.45,1.57,4.16,3.27,5.94,2.94,2.47-.45,2.56-3.55,3-6.11Zm-65.87,75.26c2.21-.47,5.23-1.1,8.24-1.76,.22-.05,.41-.27,.61-.41-.32-.23-.6-.57-.96-.68-3.27-1.01-5.79-2.71-7.17-6.1-1.1-2.7,.05-4.96,.58-7.39,.08-.39,.03-.81,.04-1.22-.34,.1-.71,.14-1,.32-1.97,1.28-4.19,2.33-5.82,3.97-1.98,1.99-3.46,4.59-3.06,7.56,.53,3.92,3,5.58,8.54,5.72Zm-22.94,4.34c-.04-.64,.14-1.45-.18-1.87-.56-.74-1.44-1.25-2.19-1.85-.32,.45-.66,.88-.96,1.35-.9,1.44-3.17,1.82-4.47,.4-.74-.82-1-.96-1.9-.4-.53,.33-1.37,.14-2.01,.36-.95,.32-2.21,.53-2.72,1.23-2.65,3.63-.79,8.59,3.77,9.5,4.54,.91,10.89-3.95,10.66-8.71Zm82.26-57.42c1.95-1.09,3.88-1.85,5.43-3.1,3.28-2.62,2.4-5.91,1-9.16-.96-2.21-4.44-3.2-6.42-1.74-3.01,2.21-6.01,7.27-2.7,11.86,.57,.78,1.56,1.26,2.68,2.14Zm-92.78,71.04c.03,.18,.05,.37,.08,.55,3.08-.72,6.36-.99,9.19-2.27,5.41-2.44,7.7-5.53,7.26-10.36-.14-1.53-.76-2.31-2.17-2.7-.96-.27-1.59-.71-1.38,1.01,.49,4.07-1.47,7.72-5.23,9.29-2.21,.92-4.73,1.24-7.14,1.52-4.77,.55-8.01-2.37-8.29-7.21-.02-.4-.21-.79-.32-1.18-.42,.27-1.04,.45-1.24,.84-1.28,2.48-.69,5.48,1.37,7.49,2.18,2.13,4.62,3.59,7.87,3.02Zm-77.51,21.52c-.05,3.14,1.79,6.51,4.27,7.29,.83,.26,2.1-.09,2.86-.61,1.15-.79,.2-1.66-.3-2.54-.78-1.38-1.76-2.83-1.93-4.34-.4-3.71,2.42-5.44,5.13-7,2.25-1.28,4.2-.47,5.83,1.35,.12,.13,.26,.3,.42,.35,.5,.16,1.02,.27,1.53,.41,.1-.43,.25-.85,.28-1.28,.13-2.34-1.65-4.18-4.42-4.61-4.99-.78-12.72,4.65-13.66,9.62-.08,.44-.01,.91-.01,1.37Zm-9.58,56.97c-.69,.29-1.58,.4-2.02,.91-1.73,1.97-1.41,4.37,.64,5.97,4.96,3.86,13.13,1.31,15.05-4.71,.83-2.58-1.99-5.83-4.6-5.24-.62,.14-1.49,.26-.72,1.46,1.01,1.57-.09,4.12-1.9,5.03-1.97,.99-3.25,.5-4.27-1.81-.43-.98-.69-1.95-2.18-1.61Zm2.83-55.59c.25,1.61,.33,3.28,.8,4.82,1.02,3.36,3.35,5.83,6.15,7.78,1.53,1.06,2.14-.38,2.86-1.48,1.03-1.57-.73-1.11-1.04-1.29-4.87-2.84-8.11-10.47-4.61-15.87,3.33-5.15,7.75-8.94,14.13-9.59,1.64-.17,1.54-1.04,1.31-1.95-.08-.32-1.23-.69-1.75-.54-5.59,1.55-10.3,4.54-14.05,8.96-2.22,2.62-3.74,5.57-3.79,9.15ZM232.5,49.98c.05,2.05,2.58,3.88,4.47,3.08,1.49-.63,3.11-1.31,4.21-2.42,1.23-1.24,1.93-2.99,2.86-4.51-1.31-.43-2.62-.86-3.92-1.29-.26-.09-.51-.22-.78-.25-2.93-.3-6.93,1.72-6.85,5.39ZM68.64,241.35c1.4-.34,2.86-.52,4.19-1.06,.98-.4,1.44-1.23,.01-1.87-1.85-.83-3.74-1.6-5.52-2.55-.74-.39-1.24-1.21-1.87-1.81-.45-.43-.94-1.18-1.4-1.17-.92,.02-2.47,.29-2.6,.77-.34,1.21-.41,2.77,.09,3.88,1.34,2.92,4.02,3.74,7.1,3.8Zm-1.43-23.76c2.53-.04,3.84-1.18,3.75-3.26-.14-3.28-1.86-6.19-3.65-6.19-1.76,0-5,3.65-4.9,5.51,.11,2.07,2.43,3.97,4.79,3.94Zm14.38,25.72c.53,.67,1.01,1.76,1.45,1.74,3.26-.13,7.64-4.84,7.35-8.03-.11-1.23-1.02-2.39-1.57-3.58-1.74,1.46-3.47,2.93-5.21,4.39,1.15,1.43,.06,2.24-.8,3.21-.48,.54-.72,1.31-1.23,2.27Zm.87-57.8c0-.45,.14-.97-.03-1.35-.4-.87-.8-2.09-1.5-2.36-.62-.24-1.83,.45-2.49,1.04-2.01,1.81-2.74,7.86-1.61,10.3,.42,.91,.64,.95,1.46,.64,3.97-1.48,3.63-5.1,4.17-8.27ZM243.74,62.13c-.12,.03-.25,.07-.37,.1,.17,.47,.33,.95,.5,1.42,.3-.43,.87-.87,.86-1.29-.06-2.63,1.32-4.43,3.16-6.06,1.9-1.68,1.8-1.63-.07-3.53-1-1.01-1.67-2.34-2.52-3.5-.17-.23-.69-.51-.73-.47-1.12,1.14-2.45,2.2-3.19,3.56-.42,.78,.03,2.12,.32,3.15,.41,1.45,1.08,2.84,1.55,4.27,.25,.75,.33,1.56,.49,2.34Zm2.1,5.97c-.23-.48-.63-1.57-1.24-2.52-.71-1.1-1.37-1.41-2.34,.04-1.5,2.24-3.31,4.27-5.01,6.38-.82,1.01-.17,1.33,.68,1.73,3.27,1.52,7.86-1.34,7.9-5.63ZM81.73,179.94c.53,.73,.99,1.55,1.64,2.2,.28,.28,1.01,.43,1.38,.27,2.09-.89,3.89-5.07,3.17-7.23-.35-1.03-1.04-2.03,.77-2.48,.27-.07,.21-1.43,.3-2.2-.58,.27-1.3,.39-1.71,.82-1.23,1.32-2.47,2.68-3.46,4.18-.83,1.26-1.31,2.74-2.1,4.44ZM233.04,67.5c-.54-.89-.91-2.34-1.64-2.55-1.6-.47-3.12,.42-3.64,2.04-.46,1.43-.46,3.02-.64,4.53-.18,1.52,.84,1.59,1.9,1.45,2.31-.29,3.61-2.2,4.03-5.48ZM90.04,162.04c.34-.52,.65-1.29,1.2-1.79,.98-.9,2.11-1.36,3.47-.59,.31,.17,.86-.05,1.29-.16,.03,0,.04-.51-.07-.71-.94-1.67-3.44-2.4-5.07-1.36-1.13,.72-2.26,1.55-3.13,2.55-1.82,2.11-1.78,2.75,.11,4.86,.37,.42,1.45,.85,1.65,.67,.49-.45,.77-1.23,.94-1.92,.1-.38-.19-.85-.38-1.57Zm-21.06,83.65c1.43-.47,2.88-.91,4.29-1.44,.3-.11,.48-.58,.71-.88-.33,.06-.67,.09-1,.17-2.94,.76-5.8,1.04-8.82,.01-5.86-1.99-7.63-5.9-4.95-11.47,.18-.38-.05-.95-.09-1.43-.41,.27-1.02,.46-1.18,.84-.54,1.22-.86,2.54-1.36,3.79-.85,2.14-.54,4.19,1.16,5.69,3.17,2.78,6.79,4.5,11.23,4.71Zm50.61-112.34c-.37-.49-.6-1.08-.86-1.1-1.57-.11-3.25-.42-4.7,0-1.62,.46-3,1.72-3.28,3.59-.21,1.43,.84,2.13,2.1,1.49,1.77-.9,3.54-1.79,5.28-2.74,.5-.28,.9-.75,1.46-1.24Zm-47.86,80.97c.12,.01,.24,.03,.37,.04,0,.72-.05,1.45,.03,2.17,.03,.26,.37,.49,.56,.74,.15-.19,.4-.36,.43-.57,.58-3.71,1.15-7.42,1.67-11.14,.07-.48-.14-1-.21-1.5-.42,.32-.95,.55-1.22,.96-.39,.59-.73,1.28-.82,1.96-.33,2.44-.54,4.89-.8,7.34ZM222.98,78.6c1.54-.96,2.8-1.64,3.96-2.48,1.3-.94,1.24-1.33,0-2.11-.35-.22-.47-.78-.81-1.01-.29-.2-1-.32-1.11-.17-.99,1.32-1.98,2.65-2.76,4.1-.18,.33,.45,1.08,.72,1.67ZM59.34,226.45c-.14,3.86,2.3,6.05,6.44,5.06,.38-.09,.69-.48,1.03-.73-.35-.07-.7-.15-1.05-.2-3.89-.59-4.84-1.44-5.19-4.66-.13-1.22-.26-2.45-.4-3.67-.28,1.4-.56,2.8-.83,4.2Zm34.21-58.33c-.96-.93-2.06-2.17-2.17-2.08-1.04,.77-2.18,1.65-2.67,2.78-.18,.42,1.27,1.56,1.98,2.37,.87-.92,1.74-1.85,2.87-3.06Zm-16.47,29.82s.05,.65,.1,1.27c.46-.51,.96-.98,1.37-1.53,.31-.43,.59-.93,.72-1.45,.15-.61,.13-1.27,.18-1.91-.79,.47-1.67,.83-2.32,1.45-.27,.26-.05,1.04-.05,2.17Zm-6.87,34.12c-.05,.32-.18,.56-.11,.72,.55,1.25,1.06,2.54,1.77,3.7,.16,.27,1.03,.11,1.57,.15-.23-.41-.43-.84-.69-1.23-.6-.89-1.24-1.75-1.87-2.62-.15-.21-.35-.38-.68-.72ZM237.9,75.19c-.65-.43-1.4-1-1.45-.95-.61,.68-1.13,1.45-1.63,2.23-.02,.03,.48,.5,.55,.46,.8-.5,1.57-1.06,2.53-1.73Zm-48.31,23.4c-.06-.06-.11-.17-.17-.18-.06,0-.13,.1-.2,.15,.06,.06,.12,.17,.19,.17,.06,0,.13-.1,.18-.14Z"/>
  <path class="cls-1" d="M156.76,173.51c-2.63-1.15-3.79-3.2-3.29-5.82,.42-2.21,2.07-3.41,4.82-3.51,.64-.02,1.28-.04,1.92-.1,4.57-.4,6.55,2.05,4.75,6.33-1.91,4.52-.83,9.16-1,13.74-.06,1.66,1.62,2.4,3.42,1.96,7.73-1.9,15.39-4.15,23.21-5.56,6.06-1.09,12.32-1.47,18.49-1.43,2.69,.02,5.74,1.38,7.97,3.01,3.06,2.25,3.44,5.09,1.06,9.21-1.05,1.82-2.75,3.48-4.53,4.64-6.45,4.2-13.42,7.13-21.22,7.71-4.08,.3-8.14,.89-12.22,1.03-4.34,.15-8.56-.49-12.21-3.19-1.46-1.08-2.45-.31-2.88,1.08-.39,1.28-.57,2.67-.58,4.01-.06,9.51,.3,19.03-.18,28.52-.38,7.51-1.76,14.98-2.73,22.46-.47,3.6-1.07,7.19-1.51,10.8-.26,2.08-.42,4.18-.48,6.28-.09,3.49-.64,6.99,1.74,10.21,1.12,1.51,1.53,3.67,1.82,5.61,.14,.96-.42,2.45-1.18,3.03-1.79,1.37-3.81,2.42-6.3,1.31-2.73-1.22-5.6-2.09-7.33-4.87-1.57-2.52-2.07-4.99-.56-7.67,.62-1.1,1.06-2.41,1.93-3.25,2.74-2.63,3.93-5.95,5.04-9.45,1.52-4.81,3.63-9.44,4.97-14.29,.93-3.36,1.04-6.96,1.46-10.46,.4-3.33,.95-6.65,1.07-9.99,.3-8.47,.64-16.96,.48-25.43-.07-3.83-1.09-7.68-2.06-11.42-.43-1.65-1.67-3.19-2.85-4.5-1.04-1.15-2.44-1.53-4.18-.86-4.37,1.68-8.28,3.93-11.83,7.04-5.08,4.44-10.53,8.45-15.67,12.81-.95,.8-1.32,2.37-1.78,3.65-.42,1.18-.39,2.53-.9,3.65-1.23,2.72-5.11,3.02-6.36,.33-1.55-3.34-2.74-6.88-1.66-10.77,.46-1.65,1.39-2.52,2.85-2.29,3.77,.57,6.45-1.27,9.4-3.22,8.14-5.37,17.13-9.12,26.15-12.77,5.5-2.22,6.66-2.18,5.29-9.74-.16-.89-.09-1.85-.37-2.7-.58-1.75-1.33-3.45-2.01-5.17,.38-.06,1.04-.03,1.09-.19,.36-1.1,.43-2.33,.91-3.36,.87-1.87,2.96-1.94,4.08-.26,.32,.47,.64,.94,.97,1.41,.23-.58,.54-1.15,.67-1.75,.63-3.1-.95-4.82-4.15-4.54-.9,.08-1.78,.38-2.68,.46-1.48,.13-2.52,.67-3.08,2.18-.57,1.54-.5,2.74,.78,3.91,.63,.58,.99,1.45,1.48,2.2Zm24.4,29.53c6.76-.01,13.46-1.24,19.99-3.23,5.49-1.67,10.85-3.68,14.8-8.24,1.82-2.1,1.7-4.53,1.06-6.7-.58-2.01-2.52-3.38-4.74-3.64-3.08-.35-6.24-.89-9.28-.54-7.59,.87-15.18,1.89-22.65,3.44-4.54,.94-8.9,2.87-13.22,4.63-.99,.4-1.97,1.89-2.16,3.01-.42,2.49,.8,4.88,2.58,6.3,3.86,3.1,8.16,5.57,13.6,4.97Zm-23.6,91.21c3.29,.05,4.94-1.93,4.16-5.08-.34-1.39-.78-2.76-1.25-4.11-.34-.98-.61-1.07-1.42-.12-1.95,2.25-3.77,1.94-5.57-.43-1.28-1.7-1.12-3.56-1.17-5.45,0-.29-.56-.85-.65-.81-1.88,.8-4.24,6.35-3.79,8.47,.99,4.67,6.21,6.92,9.69,7.53Zm-41.93-82.13c.68,2.4,1.18,4.88,2.12,7.17,.35,.85,1.74,1.71,2.68,1.74,.74,.02,1.86-1.08,2.22-1.93,.61-1.46,.79-3.11,1.05-4.69,.04-.24-.43-.69-.76-.83-2.84-1.23-3.1-1.7-1.68-4.32,.46-.84,.76-1.08-.47-1.27-3.78-.59-4.74,.17-5.16,4.13Z"/>
  <path class="cls-1" d="M61.43,41.93c2.18,3.09,1.67,6.19-.12,9.17-2.52,4.17-3.23,8.8-3.47,13.51-.18,3.4,1.06,4.08,4.19,2.78,6.45-2.67,12.85-5.5,19.4-7.92,5.32-1.96,10.92-2.68,16.64-2.37,4.78,.26,7.66,4.12,6.13,8.69-1.75,5.22-5.58,8.73-10.29,11.19-5.96,3.1-11.99,6.21-18.72,7.25-4.29,.66-8.69,1.01-12.96-.46-.68-.23-1.34-.57-1.94-.96-3.25-2.09-3.38-2.15-4.65,1.58-5.02,14.8-10.46,29.49-13.44,44.89-1.24,6.4-2.03,12.87-3.21,19.28-.48,2.65-1.57,5.18-2.12,7.82-.27,1.32-.16,2.81,.14,4.13,.35,1.57,1.18,3.03,1.65,4.58,1.23,4.07-.62,7.03-4.79,7.8-4.51,.84-8.58-1.33-10.4-5.58-.53-1.24-1.02-2.51-1.45-3.8-.82-2.46-.16-4.58,2.16-5.33,3.36-1.09,4.84-3.63,6.06-6.55,5.73-13.7,11.04-27.55,14.91-41.92,1.9-7.07,4.35-13.99,6.24-21.06,1.01-3.8,2.11-7.67,.97-11.76-.64-2.3-.51-2.43-2.44-1.23-4.95,3.08-10.12,5.88-14.71,9.43-2.64,2.04-4.36,5.28-6.43,8.03-1.75,2.32-3.31,4.8-5.15,7.05-1.05,1.28-1.61,2.48-1.56,4.17,.07,2.77-.92,3.83-3.11,3.81-2.43-.03-3.61-1.15-3.43-3.86,.24-3.61,.67-7.22,1.27-10.79,.38-2.3,2.35-3.85,4.52-3.34,2.34,.55,4.09-.36,5.78-1.45,7.42-4.78,14.74-9.72,22.15-14.51,3.29-2.13,5.46-4.65,4.77-8.9-.26-1.6-.09-3.29-.03-4.93,.14-4.4,.15-8.71-2.61-12.56-1.25-1.75-.88-3.62,.86-5.06,.15,.15,.31,.3,.46,.45-1.55,1.98-.92,3.89,.21,5.77,.46,.77,.59,1.97,1.85,.34,1.85-2.38,3.9-2.1,5.21,.63,.82,1.71,.99-.1,1.03-.15,1.78-2.45,.97-4.94,.05-7.42,.14-.15,.29-.3,.43-.45Zm7.07,41.06c11.35,0,20.34-4.02,28.59-9.99,2.29-1.66,4.13-3.77,5.23-6.49,1.46-3.64-.03-6.68-3.83-7.76-4.44-1.26-8.73-.16-12.86,1.04-8.36,2.45-16.34,5.88-23.99,10.08-3.69,2.03-4.51,5.96-1.85,9.27,2.51,3.12,5.66,4.47,8.72,3.85Zm-36.35,88.85c.26,0,.91,.07,1.54-.01,3.1-.4,4.61-2.04,4.25-5.12-.2-1.75-1-3.44-1.58-5.13-.2-.58-.54-1.1-.82-1.65-.27,.46-.43,1.08-.82,1.36-1.19,.84-2.45,2.05-3.74,2.12-.75,.04-1.7-1.76-2.38-2.84-.36-.57-.28-1.4-.55-2.05-.11-.27-.69-.6-.94-.53-4.68,1.39-5.34,2.79-3.5,7.28,.27,.67,.51,1.36,.84,2.01,1.51,3.01,3.8,4.8,7.72,4.57Zm-15.82-68.92c.07,0,.14,.01,.21,.02,0,.82-.18,1.7,.06,2.44,.2,.64,.84,1.52,1.37,1.59,.88,.12,2.21-.04,2.66-.62,.54-.7,.83-2.56,.43-2.87-2.06-1.57-1.35-3.38-.73-5.12,.64-1.77,1.66-3.4,2.34-5.16,.21-.55,.1-1.75-.23-1.91-1.84-.9-4.41,.47-4.77,2.52-.53,3.02-.9,6.06-1.34,9.1Z"/>
  <path class="cls-1" d="M52.2,42.77c2.31-3.43,6.61-3.82,9.23-.84-.14,.15-.29,.3-.43,.45-3.04-2.48-5.01-2.28-8.34,.84-.15-.15-.31-.3-.46-.45Z"/>
  <path class="cls-1" d="M118.59,146.94l-3.34,3.32c-.12-.14-.25-.29-.37-.43,1.09-1.11,2.19-2.22,3.28-3.33,.14,.15,.28,.3,.42,.45Z"/>
  <path class="cls-1" d="M125.18,142.59c-1.38,.8-2.76,1.6-4.14,2.41-.13-.14-.27-.27-.4-.41,1.39-.81,2.78-1.61,4.17-2.42,.12,.14,.24,.29,.37,.43Z"/>
  <path class="cls-1" d="M181.68,103.94c.93-.55,1.85-1.1,2.78-1.65,.12,.15,.25,.3,.37,.46-.92,.54-1.84,1.09-2.76,1.63-.13-.15-.26-.3-.39-.44Z"/>
  <path class="cls-1" d="M112.58,153.48c-.57,.75-1.15,1.51-1.72,2.26-.14-.16-.29-.32-.43-.48,.57-.71,1.15-1.42,1.72-2.13,.14,.12,.29,.24,.43,.35Z"/>
  <path class="cls-1" d="M114.81,150.73c-.58,.75-1.17,1.5-1.75,2.25l-.44-.48c.59-.7,1.17-1.4,1.76-2.1,.12,.13,.27,.24,.43,.33Z"/>
  <path class="cls-1" d="M184,100.89c-.07,.06-.12,.16-.2,.18-.67,.14-1.33,.27-2,.4,.61-.34,1.23-.68,1.84-1.02,.12,.15,.24,.29,.36,.44Z"/>
  <path class="cls-1" d="M179.23,105.37c.82-.48,1.63-.96,2.45-1.44,.13,.15,.26,.3,.39,.44l-2.41,1.45c-.14-.15-.29-.31-.43-.46Z"/>
  <path class="cls-1" d="M110.41,156.22c-.49,.65-.97,1.3-1.46,1.94-.15-.13-.29-.26-.44-.39,.48-.63,.97-1.26,1.45-1.88,.15,.11,.3,.22,.45,.33Z"/>
  <path class="cls-1" d="M186.07,101.23l1.74-1.16c.11,.16,.21,.32,.32,.48-.55,.36-1.11,.73-1.66,1.09-.13-.14-.27-.27-.4-.41Z"/>
  <path class="cls-1" d="M184.46,102.29c.54-.36,1.08-.71,1.61-1.07,.13,.14,.27,.27,.4,.41-.55,.37-1.09,.74-1.64,1.11-.12-.15-.25-.3-.37-.46Z"/>
  <path class="cls-1" d="M121.05,144.99l-1.64,1.1c-.14-.14-.27-.28-.41-.41,.55-.37,1.1-.73,1.65-1.1,.13,.14,.27,.27,.4,.41Z"/>
  <path class="cls-1" d="M119.4,146.09l-.81,.84c-.14-.15-.28-.3-.42-.45l.83-.81c.14,.14,.27,.28,.41,.41Z"/>
  <path class="cls-1" d="M110.86,155.74c-.15,.16-.3,.32-.44,.48-.15-.11-.3-.22-.45-.33l.46-.63c.14,.16,.29,.32,.43,.48Z"/>
  <path class="cls-1" d="M113.06,152.99c-.16,.16-.32,.33-.48,.49-.14-.12-.29-.24-.43-.35,.16-.21,.31-.41,.47-.62,.15,.16,.3,.32,.44,.48Z"/>
  <path class="cls-1" d="M115.25,150.26l-.45,.48c-.16-.08-.31-.19-.43-.33,.17-.19,.34-.39,.51-.58,.12,.14,.25,.29,.37,.43Z"/>
  <path class="cls-1" d="M75.13,146.13c.1-.13,.21-.24,.33-.34,.2,.13,.4,.27,.59,.4-.19,.17-.38,.35-.57,.52-.12-.19-.24-.39-.36-.58Z"/>
  <path class="cls-1" d="M187.81,100.06c.15-.14,.3-.28,.45-.42,.17,.15,.35,.31,.52,.46-.22,.14-.43,.29-.65,.43-.11-.16-.21-.32-.32-.48Z"/>
  <path class="cls-2" d="M257.35,97.15c-.2,7.08-1.1,13.97-6.03,19.58-.86,.97-2.07,1.67-3.19,2.37-2,1.24-4.35,2.08-6.01,3.65-2.81,2.66-6.12,3.7-9.55,2.83-3.98-1-6.47,.45-8.81,3.24-2.26,2.69-5.21,3.88-8.54,2.47-2.22-.93-4.25-2.42-6.16-3.92-2.01-1.57-3.78-3.44-5.65-5.18-.24-.23-.47-.48-.7-.72,.35-.04,.7-.15,1.04-.1,3.6,.55,7.23,.97,10.78,1.74,5.51,1.2,10.57-.36,15.38-2.56,4.1-1.88,8.38-3.8,11.24-7.56,3.47-4.56,6.13-9.46,5.82-15.49-.23-4.58-5.58-11.74-10.06-12.5-1.96-.33-4.16,.68-6.25,1.09-.41,.08-.82,.15-1.23,.22,.17-.39,.26-.85,.53-1.16,1.95-2.29,3.92-4.57,5.92-6.81,2.31-2.6,5.18-2.73,8.23-1.67,6.93,2.41,14.31,11.25,13.23,18.83-.08,.54,0,1.1,0,1.64Z"/>
  <path class="cls-2" d="M213.41,117.54c-4.11-.35-8.98-.46-13.31-2.94-4.34-2.48-4.82-8.79-.74-11.69,2.04-1.45,4.54-2.24,6.85-3.29,.08-.04,.6,.49,.55,.62-.76,1.92,.2,3.07,1.63,4.16,3.7,2.84,7.79,4.02,12.3,2.67,5.42-1.63,12.1-8.64,7.51-16.01-1.01-1.62-.24-2.18,.98-2.55,7.84-2.33,11.94,1.99,12.33,8.02,.38,5.91-2.69,9.97-6.54,13.81-5.81,5.79-13.1,7.12-21.56,7.21Z"/>
  <path class="cls-2" d="M176.51,121.37c.45-.33,1.04-.56,1.33-1,1.13-1.73,2.66-1.83,3.69-.15,1.99,3.22,5.21,4.14,8.63,4.37,4.41,.3,4.76,.28,6.1,4.5,.93,2.93,1.52,5.98,2.02,9.02,.5,3.04-.95,5.63-3.03,7.57-3.98,3.72-7.94,7.58-12.44,10.59-5.01,3.35-10.79,3.35-16.5,1.35-1.01-.35-2.05-.61-3.03-1.02-.38-.16-.63-.63-.93-.96,.47-.21,.92-.51,1.42-.6,5.67-1.06,10.54-3.76,15.4-6.77,4.22-2.61,5.37-6.79,4.25-12.44-.85-4.32-2.94-7.75-6.97-9.86-1.27-.67-2.89-1.54-.51-2.99,.18-.11,.05-.73,.06-1.11,0,0-.05,.05-.05,.05,.2-.2,.39-.39,.59-.59l-.04,.05Z"/>
  <path class="cls-2" d="M114.89,149.82c-.17,.19-.34,.39-.51,.58-.59,.7-1.17,1.4-1.76,2.1-.16,.21-.31,.41-.47,.62-.57,.71-1.15,1.42-1.72,2.13-.15,.21-.31,.42-.46,.63-.48,.63-.97,1.26-1.45,1.88-1.61,2.17-3.24,4.32-4.81,6.51-.18,.25-.09,.71-.13,1.07,.33-.17,.74-.28,.98-.54,.48-.53,.85-1.16,1.28-1.74,.96-1.3,1.8-3.21,3.74-2.6,2.18,.69,4.68,1.47,5.17,4.27,.39,2.22,.24,4.38-1.77,5.96-2,1.57-4.17,2.48-6.53,1.06-.86-.52-1.32-1.69-1.98-2.55-.18-.24-.47-.39-.71-.59-.1,.24-.26,.48-.27,.72-.01,.26,.09,.53,.18,.79,1.21,3.6-.26,6.37-3.14,8.21-2.77,1.78-5.89,2.43-8.89,.1-.19-.14-.58-.02-.87-.03l.04,.04c-.56-1-1.1-2.02-1.68-3.01-.44-.75-.78-1.24,.33-1.93,2.9-1.8,5.66-3.82,8.46-5.78,.2-.14,.28-.44,.42-.67-.33-.06-.71-.25-.99-.16-.93,.3-1.83,.71-2.74,1.07l.04,.05c.86-2.15,1.62-4.34,2.61-6.43,1.82-3.83,3.8-7.58,5.67-11.39,2.17-4.39,5.45-7.95,9.09-11.03,2.21-1.87,5.2-2.88,7.94-4.03,1.26-.53,.48,.58,.47,1.02,0,0,.04-.03,.04-.03-.93,.56-1.86,1.12-2.78,1.68,0,0,.03-.03,.03-.03-2.84,1.12-4.93,2.92-5.52,6.08l.03-.04c-.2,.2-.39,.39-.59,.59l.04-.04c-.2,.2-.39,.39-.59,.59l.04-.04c-.2,.2-.39,.39-.59,.59l.04-.04c-.16-.05-.44-.17-.45-.14-2.07,3.88-4.13,7.77-6.16,11.67-.08,.15,.14,.45,.23,.68,.24-.13,.53-.2,.7-.38,2.27-2.46,4.53-4.95,6.78-7.42,0,0-.05,.04-.05,.04,.2-.2,.39-.4,.59-.59,0,0-.04,.04-.04,.04,.2-.2,.39-.39,.59-.59l-.04,.04c.74-.75,1.48-1.5,2.22-2.25l-.04,.03c.39-.19,.77-.38,1.16-.56l-.04,.03c.56-.57,1.11-1.13,1.67-1.7,0,0-.04,.04-.04,.04,.57-.38,1.13-.75,1.7-1.13,0,0-.04,.04-.04,.04,.2-.2,.39-.4,.59-.59l-.05,.04c.38-.19,.77-.38,1.15-.58l-.04,.04c.2-.2,.39-.4,.59-.59l-.05,.03c.94-.55,1.87-1.11,2.81-1.66l-.04,.03c.37-.38,.75-.77,1.12-1.15,0,0-.04,.03-.04,.03,2.22-.28,3.96-1.27,4.99-3.33l-.04,.04c.94,.18,1.79,.23,1.69-1.13,0,0-.04,.04-.04,.04,.38-.19,.77-.38,1.15-.56l-.04,.03c.38-.38,.75-.76,1.13-1.14,0,0-.04,.04-.04,.04,.2-.2,.39-.4,.59-.59l-.05,.04c.97,.23,1.75,.17,1.69-1.13l-.04,.03c2.97-1.26,5.94-2.52,8.9-3.81,.06-.03-.04-.41-.06-.62l-.04,.03c.57-.19,1.14-.37,1.71-.56l-.04,.03c.37-.38,.75-.77,1.12-1.15,0,0-.04,.03-.04,.03l6.11-2.76-.04,.04c2.37-1.13,4.73-2.29,7.12-3.38,.42-.19,.97-.13,1.46-.18-.29,.36-.51,.83-.89,1.05-5.22,3.06-10.54,5.96-15.67,9.16-4.22,2.64-8.15,5.75-12.36,8.41-2.8,1.77-5.88,3.1-8.84,4.63-1.39,.81-2.78,1.61-4.17,2.42l-1.65,1.1c-.28,.27-.55,.54-.83,.81-1.09,1.11-2.19,2.22-3.28,3.33Zm-8.83-2.24c-.16,.2-.33,.4-.49,.61-1.2,2.4-2.51,4.75-3.56,7.21-1.2,2.8-2.17,5.7-3.23,8.57-.27,.72-.47,1.46-.7,2.2,.5-.64,1.16-1.21,1.47-1.93,2.2-5.22,4.33-10.46,6.48-15.7,.16-.19,.31-.38,.47-.57,.03-.21,.06-.43,.1-.64-.18,.09-.36,.17-.53,.26Zm-2.14,10.89s-.13-.24-.24-.46c-.16,.09-.4,.13-.46,.26-1.04,2.57-2.06,5.15-3.04,7.75-.06,.15,.22,.44,.38,.63,.03,.03,.36-.09,.4-.19,.98-2.6,1.93-5.21,2.95-8Z"/>
  <path class="cls-2" d="M180.4,137.74c.04,5.87-3.72,8.92-8.4,11.35-4.28,2.22-8.87,3.16-13.62,3.52-6.06,.47-13.44-3.5-16.01-8.98-.67-1.43-.7-3.31-.55-4.95,.23-2.58,.86-5.13,3.24-6.74,.3-.2,.64-.34,.96-.51,.06,.32,.2,.64,.18,.95-.27,4.19,2.13,7.8,6,9.32,4.18,1.64,8.24,.78,12.3-.34,5.92-1.63,10.08-4.96,11.02-11.41,.02-.16,.8-.43,.98-.3,2.28,1.6,3.86,4.95,3.9,8.09Z"/>
  <path class="cls-2" d="M83.34,256.98c-2.19,.27-3.81-.42-4.58-2.59-.78-2.19,.46-4.02,2.77-3.91,5.33,.27,9.12-2.23,12.39-6.16,3.08-3.71,2.09-8.79-.4-11.78-.89-1.07-.74-1.63-.11-2.49,.16-.22,.31-.45,.47-.67,.75-1,1.62-2.91,2.25-2.83,2.27,.27,4.6,.83,6.12,2.98,4.36,6.16,4.73,15.23-2.53,21.3-2.6,2.17-5.18,4.42-8.56,5.16-2.56,.55-5.21,.68-7.82,1Z"/>
  <path class="cls-2" d="M135.83,109.82c1.18,1.81,2.51,3.54,3.51,5.45,1.9,3.62,1.05,7.33-2.05,9.75-.4,.31-.94,.43-1.41,.64-.19-.54-.4-1.07-.55-1.61-.55-2.07-.69-4.35-1.69-6.16-1.57-2.84-4.34-4.29-7.64-3.63-3.17,.64-6.5,1.26-9.33,2.72-5.86,3-7.31,6.69-6.06,13.06,.13,.68-.06,1.43-.1,2.15-.82-.38-1.93-.54-2.43-1.17-4.25-5.44-3.89-10.89,.85-16,4.26-4.58,9.57-7.25,15.63-8.34,3.44-.62,6.67,.6,9.67,2.3,.54,.31,1.09,.59,1.64,.89l-.03-.03Z"/>
  <path class="cls-2" d="M75.49,146.71c.19-.17,.38-.35,.57-.52,2.11-1.53,4.16-3.15,6.34-4.58,3.59-2.37,7.51-1.32,11.33-.8,.19,.03,.21,1.28,.31,1.96l.04-.04c-.68,.36-1.32,.9-2.04,1.07-7.6,1.73-13.76,5.64-18.12,12.14-4.06,6.07-3.24,14.74,2.4,19.39,1.12,.93,2.07,2.07,3.13,3.08,.92,.87,.6,.97-.48,1.13-5.58,.81-7.55-.29-9.78-5.68-.87-2.1-1.95-4.14-2.54-6.31-1.83-6.74,.46-12.32,5.22-17.1,1.22-1.23,2.42-2.48,3.62-3.72Z"/>
  <path class="cls-2" d="M124.76,102.24c-5.04-.85-9.51,1.11-13.86,3.55-.51,.28-1.12,.37-1.69,.55,.28-.53,.49-1.11,.85-1.57,1.81-2.28,3.52-4.66,5.52-6.76,2.95-3.08,5.75-3.42,9.25-.93,2.63,1.88,5.16,2.3,8.39,1.97,3.66-.37,7.4-.79,11.16,1.23,3.9,2.09,5.1,5.32,5.01,8.93-.08,3.29-.41,6.92-3.26,9.44-.53,.47-1.13,.85-1.69,1.27-.11-.66-.33-1.33-.3-1.99,.28-6.7-2.68-11.31-8.83-13.99-3.34-1.46-6.78-2.09-10.54-1.7Z"/>
  <path class="cls-2" d="M110.02,137.8c-.6,1.05-1.19,2.1-1.82,3.13-.19,.3-.54,.5-.77,.78-.9,1.11-1.79,2.24-2.68,3.36-.84-1.11-1.74-2.17-2.48-3.34-.26-.42-.31-1.15-.13-1.62,.31-.83,.92-1.55,1.29-2.37,.08-.17-.28-.8-.46-.81-4.54-.27-10.27-5.21-11.42-10.21-.53-2.28-.74-4.7-.68-7.04,.11-4.62,3.52-7.9,8.18-8.21,.37-.02,.73-.04,1.1-.06,1.39-.06,2.79-.11,4.18-.17-.65,1.18-1.26,2.39-1.96,3.54-3.25,5.26-3.37,14.56,.91,19.8,1.41,1.73,1.84,1.53,3.37,.65,2.45-1.41,2.92-.96,2.86,2.24,.18,.11,.36,.22,.53,.33Z"/>
  <path class="cls-2" d="M129.23,147.82c.06-4.05,2.36-6.27,4.76-8.41,.87-.78,1.91-1.38,2.87-2.06,1.15-.82,1.6-.34,1.77,.88,.21,1.52,.4,3.06,.76,4.55,1.63,6.79,6.73,9.96,12.82,12.05,.41,.14,.83,.26,1.24,.39-.22,.35-.35,.86-.67,1.03-8.22,4.46-17.92,3.97-22.8-5.76-.48-.95-.58-2.08-.74-2.66Z"/>
  <path class="cls-2" d="M63.37,207.47c-1.76-.62-3.47-.94-4.86-1.77-2.15-1.29-2.48-2.79-1.44-5.06,1.75-3.82,4.16-7.15,8.29-8.56,1.99-.68,4.25-1.01,6.32-.83,1.42,.12,3.67,1.19,3.91,2.21,.54,2.3,2.03,5.01-.87,7.21-1.52,1.15-2.31,3.39-3.91,4.29-2.21,1.25-4.87,1.7-7.46,2.52Z"/>
  <path class="cls-2" d="M67.79,247c4.54-.39,8.18-1.96,10.94-5.38,.98-1.22,1.2-.83,1.65,.38,1.62,4.36-2.48,10.5-7.39,10.52-2.39,.01-4.85-.64-7.17-1.34-2.17-.65-4.13-1.64-6.58-1.14-.98,.2-2.63-.57-3.26-1.42-2.31-3.14-4.36-6.46-4.96-10.47-.61-4.05,1.23-8.13,4.77-9.89,.6-.3,1.5,.02,2.27,.05-.19,.61-.23,1.33-.59,1.81-4.21,5.64-2.92,11.5,3.46,14.62,2.14,1.05,4.57,1.52,6.87,2.25Z"/>
  <path class="cls-2" d="M74.97,229.57c4.69,.16,7.91-2.47,10.18-6.09,2.19-3.5,.11-7.2-4.17-8.22-.56-.13-1.1-.35-1.66-.52,.47-.52,.87-1.41,1.41-1.49,1.47-.24,3.25-.67,4.43-.08,2.83,1.44,5.59,3.37,6.36,6.7,.38,1.66,.1,3.6-.34,5.3-1.21,4.65-9.09,10.12-13.92,9.96-1.58-.05-2.84-.52-3.73-1.84-2.03-3-4.62-4.81-8.47-4.28-1.91,.26-2.89-.74-2.92-2.69-.02-1.44-.29-2.9-.16-4.33,.24-2.58,.32-2.5,2.75-1.82,.81,.22,.79,.37,.76,1.17-.17,5.63,1.76,7.67,7.56,8.22,.63,.06,1.28,0,1.92,0Z"/>
  <path class="cls-2" d="M111.54,127.32c.36-5.79,4.78-8.7,9.53-10.19,1.88-.59,3.95-.77,5.94-.83,3.45-.12,5.64,1.92,6.53,5.77,.67,2.89-.56,5-3.71,6.47-.93,.43-1.45,.5-2.2-.55-2.35-3.29-5.15-2.94-6.79,.67-.04,.08-.06,.18-.11,.25-.22,.36-.42,1.01-.68,1.04-2.26,.26-4.55,.67-6.77,.44-.68-.07-1.17-2-1.75-3.08Z"/>
  <path class="cls-2" d="M176.01,121.87c-2.53,1.66-6.94,1.48-9.62-.59-2.25-1.73-4.28-3.71-4.31-6.86,0-.55,.08-1.14,.3-1.64,.58-1.32,1.17-2.65,1.94-3.86,.53-.85,1.23-1.79,2.08-2.19,1.11-.51,2.43-.61,3.68-.74,4.13-.43,7.36,2.69,7.45,7.65,.05,2.57-.66,5.15-1.02,7.73l.04-.05c-.2,.2-.39,.39-.59,.59,0,0,.05-.05,.05-.05Z"/>
  <path class="cls-2" d="M242.13,90.99c4.21,4.55,3.12,9.54,1.1,14.53-3.71,9.15-11.34,13.39-20.33,15.78-5.68,1.52-11.22,.25-16.72-1.14-3.06-.77-6.08-1.74-9.11-2.62-3.81-1.1-4.38-5.38-3.86-8.09,.3-1.55,1.29-2.98,2.03-4.44,.13-.25,.54-.36,.82-.54,.05,.33,.17,.67,.15,1-.11,1.71-.59,3.47-.33,5.11,.53,3.37,2.81,5.48,6.03,6.35,7.59,2.05,15.38,2.9,22.93,.51,8.95-2.84,15.62-8.44,17.96-18.08,.68-2.8-.1-5.39-1.16-7.94,.16-.15,.33-.29,.49-.44Z"/>
  <path class="cls-2" d="M120.43,136.18c.63-.12,1.41-.04,1.88-.38,3.97-2.88,8.21-5.18,12.79-7.03,4.92-1.99,9.62-4.53,14.41-6.84,2.25-1.09,4.48-2.22,6.72-3.33l-.04,.03c.37-.38,.75-.77,1.12-1.15l-.05,.05c.96-.27,1.9-.59,2.88-.79,.46-.1,.96,.03,1.45,.05-.25,.46-.38,1.12-.76,1.34-1.96,1.11-4,2.07-5.97,3.16-.39,.21-.57,.79-.85,1.19l.04-.04-6.11,2.76s.04-.03,.04-.03c-.37,.38-.75,.77-1.12,1.15l.04-.03c-.57,.19-1.14,.37-1.71,.56l.04-.03c-1.56,.71-3.14,1.39-4.67,2.15-1.42,.71-2.78,1.51-4.17,2.28l.04-.03c-.56,.38-1.13,.75-1.69,1.13l.05-.04c-.2,.2-.39,.4-.59,.59,0,0,.04-.04,.04-.04-.38,.38-.75,.76-1.13,1.14l.04-.03c-.38,.19-.77,.38-1.15,.56,0,0,.04-.04,.04-.04-.56,.38-1.13,.76-1.69,1.13,0,0,.04-.04,.04-.04-1.66,1.11-3.33,2.22-4.99,3.33,0,0,.04-.03,.04-.03-.37,.38-.75,.77-1.12,1.15l.04-.03c-.94,.55-1.87,1.11-2.81,1.66l.05-.03c-.2,.2-.39,.4-.59,.59l.04-.04c-.38,.19-.77,.38-1.15,.58l.05-.04c-.2,.2-.39,.4-.59,.59l.04-.04-1.7,1.13,.04-.04c-.56,.57-1.11,1.13-1.67,1.7l.04-.03c-.39,.19-.77,.38-1.16,.56l.04-.03c-.74,.75-1.48,1.5-2.22,2.25l.04-.04c-.2,.2-.39,.39-.59,.59,0,0,.04-.04,.04-.04-.2,.2-.39,.4-.59,.59l.05-.04c-.73,.32-1.46,.64-2.18,.98-.32,.15-.6,.35-.91,.53-.02-.42-.18-.9-.04-1.26,.63-1.57,1.34-3.1,2.02-4.65l-.04,.04c.2-.2,.39-.39,.59-.59l-.04,.04c.2-.2,.39-.39,.59-.59l-.04,.04c.2-.2,.39-.39,.59-.59l-.03,.04,5.52-6.08-.03,.03c1.31,.08,2.47-.1,2.78-1.68l-.04,.03Z"/>
  <path class="cls-2" d="M217.14,105.47c-2.68,.01-5.02-.85-7.03-2.58-1.77-1.52-1.8-3.51,.12-4.8,1.72-1.15,3.63-2.01,5.51-2.89,.39-.19,1.06-.05,1.5,.15,1.96,.88,3.68,.58,4.34-1.33,.67-1.91,1.94-2.11,3.34-1.68,1.49,.46,2.98,1.57,2.65,3.34-.38,2-.88,4.25-2.11,5.74-2.04,2.48-4.94,3.96-8.33,4.04Z"/>
  <path class="cls-2" d="M163.09,106.18c-.08,3.44-.87,6.11-3.96,7.26-2.44,.92-4.94,1.67-7.46,2.35-1.04,.28-1.6,.07-1.19-1.43,.68-2.5,.7-5.18,1.39-7.67,.92-3.31,3-5.93,5.82-7.96,1.4-1,2.59-.95,3.21,.7,.89,2.36,1.56,4.8,2.18,6.75Z"/>
  <path class="cls-2" d="M256.67,47.8c-.44,2.56-.52,5.66-3,6.11-1.78,.32-4.49-1.37-5.94-2.94-2.69-2.92-3.22-6.91-3.55-10.79-.04-.5,.38-1.23,.81-1.56,2.55-1.92,8.35-.65,9.64,2.28,.96,2.18,1.38,4.6,2.04,6.91Z"/>
  <path class="cls-2" d="M190.8,123.07c-5.55-.13-8.01-1.8-8.54-5.72-.4-2.96,1.08-5.57,3.06-7.56,1.63-1.63,3.85-2.68,5.82-3.97,.28-.18,.66-.22,1-.32,0,.41,.04,.83-.04,1.22-.53,2.43-1.68,4.69-.58,7.39,1.38,3.39,3.9,5.09,7.17,6.1,.35,.11,.64,.45,.96,.68-.2,.14-.39,.37-.61,.41-3.01,.66-6.03,1.29-8.24,1.76Z"/>
  <path class="cls-2" d="M167.86,127.41c.23,4.76-6.12,9.62-10.66,8.71-4.56-.91-6.41-5.86-3.77-9.5,.51-.7,1.77-.91,2.72-1.23,.64-.21,1.48-.02,2.01-.36,.9-.56,1.16-.42,1.9,.4,1.29,1.42,3.56,1.04,4.47-.4,.29-.47,.64-.9,.96-1.35,.75,.6,1.62,1.11,2.19,1.85,.32,.42,.14,1.23,.18,1.87Z"/>
  <path class="cls-2" d="M190.81,84.05c1.67-.55,3.33-1.5,5.02-1.56,2.86-.11,4.35,2.46,3.71,5.27-.72,3.17-2.72,5.08-5.28,6.85-1.46,1.01-2.62,2.2-4.55,2.44-2.11,.26-2.59,.12-2.73-2.13-.19-3.15,.61-6.07,2.4-8.7,.5-.73,.98-1.48,1.47-2.22,0,0-.05,.05-.05,.05Z"/>
  <path class="cls-2" d="M250.11,69.98c-1.13-.88-2.12-1.35-2.68-2.14-3.31-4.58-.31-9.64,2.7-11.86,1.98-1.46,5.46-.47,6.42,1.74,1.4,3.24,2.28,6.53-1,9.16-1.55,1.24-3.49,2.01-5.43,3.1Z"/>
  <path class="cls-2" d="M157.33,141.02c-3.25,.57-5.69-.89-7.87-3.02-2.06-2.01-2.65-5.02-1.37-7.49,.2-.39,.82-.56,1.24-.84,.11,.39,.29,.78,.32,1.18,.28,4.84,3.52,7.76,8.29,7.21,2.42-.28,4.93-.59,7.14-1.52,3.75-1.57,5.72-5.22,5.23-9.29-.21-1.72,.42-1.28,1.38-1.01,1.41,.39,2.03,1.17,2.17,2.7,.45,4.83-1.85,7.92-7.26,10.36-2.83,1.28-6.11,1.55-9.19,2.27-.03-.18-.05-.37-.08-.55Z"/>
  <path class="cls-2" d="M79.82,162.54c0-.46-.07-.93,.01-1.37,.94-4.97,8.67-10.4,13.66-9.62,2.77,.43,4.55,2.27,4.42,4.61-.02,.43-.18,.85-.28,1.28-.51-.13-1.03-.25-1.53-.41-.16-.05-.29-.21-.42-.35-1.63-1.82-3.58-2.63-5.83-1.35-2.72,1.55-5.54,3.29-5.13,7,.16,1.5,1.14,2.96,1.93,4.34,.5,.88,1.45,1.75,.3,2.54-.76,.52-2.03,.87-2.86,.61-2.48-.78-4.32-4.14-4.27-7.29Z"/>
  <path class="cls-2" d="M70.24,219.51c1.48-.33,1.74,.63,2.18,1.61,1.02,2.31,2.3,2.8,4.27,1.81,1.82-.91,2.91-3.47,1.9-5.03-.77-1.2,.09-1.31,.72-1.46,2.61-.59,5.43,2.65,4.6,5.24-1.92,6.01-10.08,8.56-15.05,4.71-2.06-1.6-2.38-4-.64-5.97,.44-.5,1.33-.62,2.02-.91Z"/>
  <path class="cls-2" d="M73.07,163.92c.05-3.58,1.57-6.53,3.79-9.15,3.75-4.42,8.47-7.41,14.05-8.96,.52-.15,1.66,.22,1.75,.54,.23,.9,.33,1.78-1.31,1.95-6.38,.64-10.8,4.44-14.13,9.59-3.5,5.4-.25,13.03,4.61,15.87,.31,.18,2.07-.28,1.04,1.29-.72,1.09-1.33,2.54-2.86,1.48-2.8-1.95-5.13-4.42-6.15-7.78-.47-1.55-.54-3.21-.8-4.82Z"/>
  <path class="cls-2" d="M94.04,142.77c1.08-.27,2.16-.52,3.24-.8,2.14-.54,3.98,.08,5.46,1.6,1.49,1.52,.62,3.21,.06,4.82-.03,.09-.06,.17-.12,.25-1.03,1.39-.97,3.91-3.62,3.63-2.33-.25-4.68-2.56-4.99-5.05-.19-1.47,0-2.99,0-4.49l-.04,.04Z"/>
  <path class="cls-2" d="M188.13,100.54c.22-.14,.43-.29,.65-.43,3.37-1.95,6.84-3.76,10.07-5.92,2.06-1.38,3.94-1.59,6.08-.58,.33,.16,.65,.32,.98,.48-.26,.24-.49,.54-.79,.7-1.82,1-3.65,1.98-5.48,2.94-4.22,2.21-8.46,4.4-12.68,6.6,0,0,.04-.03,.04-.03l-1.12,1.15s.05-.05,.05-.05c-2.16,.8-4.33,1.59-6.48,2.42-.49,.19-.93,.54-1.42,.72-.25,.09-.77,.02-.84-.13-.12-.26-.11-.8,.06-.94,.76-.6,1.61-1.1,2.42-1.64,.8-.48,1.6-.97,2.41-1.45,.92-.54,1.84-1.09,2.76-1.63,.55-.37,1.09-.74,1.64-1.11,.55-.36,1.11-.73,1.66-1.09Z"/>
  <path class="cls-2" d="M232.5,49.98c-.09-3.68,3.91-5.69,6.85-5.39,.26,.03,.52,.17,.78,.25,1.31,.43,2.62,.86,3.92,1.29-.93,1.53-1.63,3.28-2.86,4.51-1.1,1.11-2.72,1.79-4.21,2.42-1.9,.8-4.42-1.03-4.47-3.08Z"/>
  <path class="cls-2" d="M68.64,241.35c-3.09-.06-5.77-.88-7.1-3.8-.51-1.11-.43-2.67-.09-3.88,.14-.49,1.69-.75,2.6-.77,.46-.01,.95,.74,1.4,1.17,.63,.6,1.14,1.42,1.87,1.81,1.79,.95,3.67,1.72,5.52,2.55,1.42,.64,.97,1.48-.01,1.87-1.32,.53-2.78,.72-4.19,1.06Z"/>
  <path class="cls-2" d="M67.22,217.59c-2.36,.04-4.68-1.87-4.79-3.94-.1-1.87,3.14-5.51,4.9-5.51,1.79,0,3.5,2.91,3.65,6.19,.09,2.08-1.22,3.22-3.75,3.26Z"/>
  <path class="cls-2" d="M81.6,243.32c.51-.96,.74-1.72,1.23-2.27,.86-.97,1.96-1.78,.8-3.21,1.74-1.46,3.47-2.93,5.21-4.39,.55,1.19,1.46,2.35,1.57,3.58,.29,3.19-4.09,7.9-7.35,8.03-.44,.02-.92-1.08-1.45-1.74Z"/>
  <path class="cls-2" d="M82.46,185.52c-.55,3.17-.2,6.79-4.17,8.27-.82,.31-1.04,.27-1.46-.64-1.12-2.44-.39-8.49,1.61-10.3,.66-.59,1.87-1.28,2.49-1.04,.71,.27,1.1,1.49,1.5,2.36,.17,.37,.03,.89,.03,1.35Z"/>
  <path class="cls-2" d="M243.74,62.13c-.16-.78-.24-1.59-.49-2.34-.48-1.44-1.14-2.82-1.55-4.27-.29-1.02-.74-2.37-.32-3.15,.73-1.37,2.06-2.42,3.19-3.56,.05-.05,.57,.24,.73,.47,.85,1.16,1.52,2.49,2.52,3.5,1.87,1.89,1.97,1.85,.07,3.53-1.84,1.63-3.22,3.43-3.16,6.06,0,.42-.56,.86-.86,1.29-.17-.47-.33-.95-.5-1.42,.12-.03,.25-.07,.37-.1Z"/>
  <path class="cls-2" d="M245.84,68.1c-.04,4.29-4.64,7.15-7.9,5.63-.86-.4-1.5-.72-.68-1.73,1.7-2.11,3.5-4.14,5.01-6.38,.97-1.45,1.64-1.14,2.34-.04,.61,.95,1.01,2.04,1.24,2.52Z"/>
  <path class="cls-2" d="M221.05,83.51c.88-.19,1.84-.68,2.62-.48,1.12,.29,2.41,.87,3.08,1.74,.83,1.08,.33,2.3-.7,3.38-1.61,1.71-3.53,2.21-5.69,1.83-.77-.13-1.87-.67-2.06-1.26-.29-.9-.23-2.19,.24-3,.53-.93,1.66-1.52,2.54-2.25,0,0-.03,.03-.03,.03Z"/>
  <path class="cls-2" d="M85.46,194.53c-2.1,6.99-3.98,14.08-8.73,19.91-.46,.57-.89,1.17-1.43,1.64-.12,.1-.94-.27-.95-.44-.03-.61,.02-1.3,.29-1.83,3.36-6.42,6.76-12.81,10.16-19.21,.07-.14,.28-.2,.43-.3,.08,.07,.16,.15,.23,.22Z"/>
  <path class="cls-2" d="M81.73,179.94c.78-1.7,1.27-3.18,2.1-4.44,.99-1.5,2.22-2.86,3.46-4.18,.4-.43,1.13-.56,1.71-.82-.09,.77-.03,2.13-.3,2.2-1.81,.46-1.12,1.45-.77,2.48,.73,2.16-1.08,6.33-3.17,7.23-.37,.16-1.1,.01-1.38-.27-.64-.65-1.11-1.47-1.64-2.2Z"/>
  <path class="cls-2" d="M89.67,182.31c.71-.82,1.42-1.65,2.13-2.47-.43,1.12-.73,2.3-1.3,3.34-1.53,2.77-3.19,5.47-4.74,8.22-.3,.54-.33,1.23-.49,1.85l.05-.04c-.56,.52-1.3,.94-1.65,1.58-2.65,4.84-5.22,9.72-7.84,14.58-.2,.38-.55,.69-.82,1.03-.03-.43-.14-.88-.08-1.3,.35-2.34,1.33-4.33,2.66-6.35,2.31-3.52,4.08-7.4,6.07-11.14l-.04,.03,1.11-2.25s-.03,.04-.03,.04c1.56-.56,2.29-1.69,2.23-3.33l-.03,.04c1.95-.56,2.08-2.42,2.8-3.87,0,0-.03,.04-.03,.04Z"/>
  <path class="cls-2" d="M233.04,67.5c-.42,3.27-1.72,5.19-4.03,5.48-1.06,.13-2.08,.07-1.9-1.45,.18-1.52,.18-3.1,.64-4.53,.52-1.63,2.04-2.51,3.64-2.04,.74,.22,1.11,1.66,1.64,2.55Z"/>
  <path class="cls-2" d="M90.04,162.04c.19,.72,.47,1.19,.38,1.57-.17,.69-.45,1.47-.94,1.92-.2,.18-1.27-.25-1.65-.67-1.88-2.12-1.93-2.76-.11-4.86,.87-1.01,2-1.83,3.13-2.55,1.63-1.04,4.12-.32,5.07,1.36,.11,.2,.11,.7,.07,.71-.43,.1-.98,.33-1.29,.16-1.36-.76-2.49-.3-3.47,.59-.55,.51-.86,1.27-1.2,1.79Z"/>
  <path class="cls-2" d="M68.99,245.69c-4.44-.21-8.06-1.93-11.23-4.71-1.7-1.49-2.02-3.55-1.16-5.69,.5-1.24,.82-2.56,1.36-3.79,.17-.38,.78-.56,1.18-.84,.04,.48,.27,1.05,.09,1.43-2.68,5.56-.91,9.48,4.95,11.47,3.02,1.02,5.88,.74,8.82-.01,.33-.08,.67-.12,1-.17-.23,.3-.41,.77-.71,.88-1.41,.53-2.86,.97-4.29,1.44Z"/>
  <path class="cls-2" d="M91.06,213.73c3.75,3.01,5,8.7,2.62,13.21-.89,1.69-2.34,3.08-3.62,4.54-.18,.21-.83,0-1.26,0,.2-.29,.38-.6,.61-.87,3.67-4.52,4.72-10.88,1.24-16.35l.42-.51Z"/>
  <path class="cls-2" d="M119.6,133.34c-.56,.49-.96,.96-1.46,1.24-1.74,.95-3.51,1.85-5.28,2.74-1.26,.64-2.32-.06-2.1-1.49,.28-1.87,1.66-3.13,3.28-3.59,1.45-.42,3.13-.1,4.7,0,.27,.02,.49,.6,.86,1.1Z"/>
  <path class="cls-2" d="M232.55,73.54c.92-1.43,1.69-3,2.8-4.27,2.74-3.14,4.43-6.54,3.87-10.84-.13-.96,.18-1.98,.28-2.97,.37,1,.8,1.97,1.09,2.99,.86,3.02,.06,5.84-1.66,8.26-1.83,2.57-4.02,4.89-6.06,7.31-.11-.16-.22-.31-.32-.47Z"/>
  <path class="cls-2" d="M156.23,118.6c-1.88,.66-3.76,1.29-5.63,1.98-1.36,.5-2.7,1.06-4.04,1.59-.09-.1-.18-.2-.27-.29,1.78-1.44,3.36-3.51,5.4-4.18,2.88-.96,5.67-1.99,8.32-3.47,.26-.14,.71,.05,1.07,.09-.14,.4-.15,.98-.44,1.17-1.08,.75-2.24,1.37-3.37,2.05l.05-.05c-.37,.38-.75,.77-1.12,1.15l.04-.03Z"/>
  <path class="cls-2" d="M229.61,76.69c-.29,.8-.59,1.6-.88,2.4l.04-.03c-.38,.56-.75,1.13-1.13,1.69,0,0,.03-.03,.03-.03-.2,.2-.39,.39-.59,.59l.04-.05c-1.13,.2-2.28,.33-3.39,.61-1.05,.26-2.51-.06-2.68,1.65l.03-.03c-1.12,.49-2.23,.99-3.36,1.44-.39,.16-.84,.18-1.26,.27,.17-.45,.21-1.12,.53-1.32,1.76-1.07,3.51-2.28,5.43-2.96,2.08-.73,3.97-1.42,5.08-3.52,.28-.53,1.14-.76,1.74-1.13,.12,.14,.24,.28,.36,.42Z"/>
  <path class="cls-2" d="M83.66,191.6c-.82-.17-1.53-.37-.9-1.46,1.58-2.72,3.12-5.45,4.7-8.17,.54-.93,1.04-1.9,1.72-2.71,.35-.42,1.07-.54,1.62-.8l-.04-.04c-.37,1.3-.73,2.59-1.1,3.89,0,0,.03-.04,.03-.04-.93,1.29-1.87,2.58-2.8,3.87l.03-.04c-.74,1.11-1.49,2.22-2.23,3.33,0,0,.03-.04,.03-.04l-1.11,2.25,.04-.03Z"/>
  <path class="cls-2" d="M71.74,214.31c.26-2.45,.47-4.9,.8-7.34,.09-.68,.44-1.38,.82-1.96,.27-.41,.81-.65,1.22-.96,.08,.5,.28,1.02,.21,1.5-.52,3.72-1.09,7.43-1.67,11.14-.03,.21-.28,.38-.43,.57-.2-.24-.53-.47-.56-.74-.08-.72-.03-1.45-.03-2.17-.12-.01-.24-.03-.37-.04Z"/>
  <path class="cls-2" d="M222.98,78.6c-.27-.59-.89-1.35-.72-1.67,.78-1.44,1.76-2.78,2.76-4.1,.11-.15,.81-.02,1.11,.17,.34,.23,.47,.8,.81,1.01,1.23,.78,1.3,1.17,0,2.11-1.15,.83-2.41,1.52-3.96,2.48Z"/>
  <path class="cls-2" d="M186.95,104.34c.66-.1,1.31-.21,1.97-.31,.1,.14,.21,.26,.33,.38-2.73,3.06-6.37,4.74-9.97,6.45-.34,.16-.86-.05-1.29-.09,.19-.49,.25-1.24,.6-1.43,1.82-1,3.74-1.83,5.59-2.77,.62-.31,1.16-.77,1.74-1.16,0,0-.05,.05-.05,.05l1.12-1.15-.04,.03Z"/>
  <path class="cls-2" d="M59.34,226.45c.28-1.4,.56-2.8,.83-4.2,.13,1.22,.26,2.45,.4,3.67,.35,3.23,1.31,4.08,5.19,4.66,.35,.05,.7,.13,1.05,.2-.34,.25-.65,.64-1.03,.73-4.14,.99-6.58-1.2-6.44-5.06Z"/>
  <path class="cls-2" d="M135.86,109.85c-.44-1.63-.48-1.67-3.29-3.23-.28-.15-.53-.34-.8-.51,.27-.04,.54-.11,.81-.11,3,.07,8.75,5.54,8.8,8.4,0,.37-.21,.75-.33,1.12-.23-.26-.47-.51-.67-.79-1.15-1.62-2.26-3.26-3.46-4.84-.14-.19-.71-.05-1.09-.07l.03,.03Z"/>
  <path class="cls-2" d="M183.12,110.36c-.9,2.13-1.77,4.28-2.74,6.37-.17,.36-.77,.53-1.17,.78-.15-.36-.36-.72-.42-1.1-.06-.34,.07-.71,.06-1.07-.1-3.72,.4-4.3,4.33-4.95l-.06-.04Z"/>
  <path class="cls-2" d="M93.56,168.12c-1.14,1.21-2,2.13-2.87,3.06-.71-.81-2.16-1.95-1.98-2.37,.49-1.12,1.64-2,2.67-2.78,.11-.08,1.22,1.15,2.17,2.08Z"/>
  <path class="cls-2" d="M232.63,78.51c-.72,.61-1.47,1.18-2.16,1.83-.58,.55-1.05,1.22-1.65,1.73-.42,.36-1,.54-1.51,.79l-.18-1.62-.04,.05c.2-.2,.39-.39,.59-.59,0,0-.03,.03-.03,.03,.38-.56,.75-1.13,1.13-1.69,0,0-.04,.03-.04,.03,1.17-.9,2.34-1.8,3.51-2.68,.56-.42,1.14-.81,1.71-1.21-.19,.63-.4,1.26-.55,1.89-.02,.1,.19,.25,.3,.38l.05-.04c-.2,.2-.39,.39-.59,.59l.04-.04c-.2,.2-.39,.39-.59,.59l.04-.05Z"/>
  <path class="cls-2" d="M77.09,197.94c0-1.13-.23-1.91,.05-2.17,.65-.61,1.53-.98,2.32-1.45-.05,.64-.03,1.3-.18,1.91-.13,.51-.4,1.01-.72,1.45-.4,.55-.91,1.02-1.37,1.53-.05-.62-.09-1.24-.1-1.27Z"/>
  <path class="cls-2" d="M84.69,234.38c-.68,.72-1.24,1.68-2.07,2.1-1.17,.6-2.54,.86-3.85,1.12-.41,.08-.91-.35-1.37-.55,.42-.13,.84-.25,1.26-.4,2.02-.73,4.05-1.47,6.07-2.21l-.04-.06Z"/>
  <path class="cls-2" d="M70.22,232.06c.32,.34,.52,.52,.68,.72,.63,.87,1.26,1.73,1.87,2.62,.26,.39,.46,.82,.69,1.23-.54-.04-1.41,.12-1.57-.15-.71-1.16-1.22-2.45-1.77-3.7-.07-.16,.05-.4,.11-.72Z"/>
  <path class="cls-2" d="M195.25,101.06c2.03-1.06,4.06-2.13,6.11-3.16,.18-.09,.48,.07,.72,.11-.14,.22-.24,.55-.43,.63-2.14,.81-4.29,1.58-6.44,2.36l.05,.05Z"/>
  <path class="cls-2" d="M195.2,101.01c-1.98,1.13-3.97,2.26-5.95,3.39-.12-.12-.23-.24-.33-.38,2.11-.99,4.22-1.98,6.33-2.97l-.05-.05Z"/>
  <path class="cls-2" d="M237.9,75.19c-.95,.67-1.72,1.23-2.53,1.73-.07,.04-.57-.43-.55-.46,.5-.77,1.02-1.54,1.63-2.23,.05-.05,.8,.52,1.45,.95Z"/>
  <path class="cls-2" d="M229.25,76.27c.74-.51,1.49-1.01,2.23-1.52,.06,.14,.2,.38,.17,.4-.67,.53-1.35,1.03-2.03,1.53-.12-.14-.24-.28-.36-.42Z"/>
  <path class="cls-2" d="M233.69,77.46c.2,.23,.41,.46,.61,.69-.5,.44-1,.88-1.5,1.32-.05-.32-.11-.64-.16-.95,0,0-.04,.05-.04,.05,.2-.2,.39-.39,.59-.59l-.04,.04c.2-.2,.39-.39,.59-.59,0,0-.05,.04-.05,.04Z"/>
  <path class="cls-2" d="M129.17,141.02c.37-.09,.73-.18,1.1-.27-.19,.25-.38,.5-.57,.74-.18-.16-.35-.32-.53-.47Z"/>
  <path class="cls-2" d="M85.23,194.31c.03-.37,.06-.73,.09-1.1l-.05,.04c.06,.43,.13,.86,.19,1.29-.08-.08-.16-.15-.23-.22Z"/>
  <path class="cls-2" d="M146.55,122.17c-.29,.05-.59,.09-.88,.14,.2-.14,.41-.29,.61-.43,.1,.09,.19,.19,.27,.29Z"/>
  <path class="cls-2" d="M90.1,213.69c-.27-.17-.54-.33-.81-.5l1.25,.09c-.15,.14-.29,.27-.44,.41Z"/>
  <path class="cls-2" d="M84.73,234.44c.25-.15,.5-.3,.75-.45,.04,.08,.07,.16,.11,.24-.3,.05-.6,.1-.9,.16,0,0,.04,.06,.04,.06Z"/>
  <path class="cls-2" d="M183.18,110.4c0-.13,0-.27,0-.4,.08,0,.17,.02,.25,.03-.11,.11-.21,.22-.32,.33,0,0,.06,.04,.06,.04Z"/>
  <path class="cls-2" d="M80.59,211.66c-.21,.03-.41,.06-.62,.09,.1-.14,.2-.28,.3-.43,.12,.1,.22,.22,.31,.34Z"/>
  <path class="cls-2" d="M90.64,214.24c-.18-.19-.36-.37-.54-.56,.15-.14,.29-.27,.44-.41,.18,.15,.35,.3,.53,.45l-.42,.51Z"/>
  <path class="cls-2" d="M241.64,91.43c-.03-.21-.06-.42-.09-.63,.19,.06,.38,.13,.58,.19-.16,.15-.33,.29-.49,.44Z"/>
  <path class="cls-2" d="M94.61,167.99c-.09,.13-.19,.26-.28,.38,.11-.11,.21-.22,.32-.33l-.04-.05Z"/>
  <path class="cls-2" d="M232.87,74.01c-.25,0-.5,0-.75,.01,.14-.16,.29-.32,.43-.49,.11,.16,.22,.31,.32,.47Z"/>
  <path class="cls-2" d="M189.59,98.59c-.05,.04-.12,.15-.18,.14-.06,0-.12-.11-.19-.17,.07-.06,.14-.16,.2-.15,.06,0,.12,.12,.17,.18Z"/>
  <path class="cls-2" d="M181.16,203.04c-5.44,.6-9.74-1.87-13.6-4.97-1.78-1.43-3.01-3.82-2.58-6.3,.19-1.12,1.17-2.6,2.16-3.01,4.32-1.76,8.68-3.69,13.22-4.63,7.47-1.55,15.06-2.57,22.65-3.44,3.03-.35,6.2,.19,9.28,.54,2.22,.25,4.16,1.63,4.74,3.64,.63,2.18,.76,4.6-1.06,6.7-3.96,4.56-9.31,6.57-14.8,8.24-6.54,1.99-13.24,3.22-19.99,3.23Z"/>
  <path class="cls-2" d="M157.56,294.25c-3.48-.61-8.69-2.87-9.69-7.53-.45-2.12,1.91-7.67,3.79-8.47,.1-.04,.65,.52,.65,.81,.04,1.9-.12,3.76,1.17,5.45,1.79,2.37,3.62,2.68,5.57,.43,.82-.95,1.08-.86,1.42,.12,.47,1.35,.91,2.72,1.25,4.11,.78,3.15-.87,5.13-4.16,5.08Z"/>
  <path class="cls-2" d="M115.63,212.12c.42-3.95,1.37-4.71,5.16-4.13,1.23,.19,.92,.42,.47,1.27-1.41,2.61-1.16,3.09,1.68,4.32,.33,.14,.8,.59,.76,.83-.26,1.58-.44,3.23-1.05,4.69-.36,.85-1.47,1.95-2.22,1.93-.94-.03-2.33-.89-2.68-1.74-.95-2.29-1.45-4.77-2.12-7.17Z"/>
  <path class="cls-2" d="M156.76,173.51c-.48-.74-.84-1.62-1.48-2.2-1.28-1.16-1.34-2.37-.78-3.91,.56-1.52,1.6-2.05,3.08-2.18,.9-.08,1.78-.38,2.68-.46,3.2-.28,4.78,1.44,4.15,4.54-.12,.6-.44,1.17-.67,1.75-.32-.47-.65-.94-.97-1.41-1.12-1.69-3.21-1.61-4.08,.26-.48,1.04-.55,2.26-.91,3.36-.05,.17-.71,.13-1.09,.19l.05,.05Z"/>
  <path class="cls-2" d="M68.5,82.99c-3.06,.62-6.21-.72-8.72-3.85-2.66-3.31-1.84-7.24,1.85-9.27,7.65-4.2,15.63-7.64,23.99-10.08,4.13-1.21,8.42-2.3,12.86-1.04,3.8,1.08,5.3,4.12,3.83,7.76-1.1,2.72-2.94,4.83-5.23,6.49-8.25,5.97-17.23,10-28.59,9.99Z"/>
  <path class="cls-2" d="M32.16,171.84c-3.92,.23-6.21-1.56-7.72-4.57-.32-.65-.56-1.33-.84-2.01-1.84-4.5-1.19-5.89,3.5-7.28,.25-.07,.83,.26,.94,.53,.27,.65,.19,1.49,.55,2.05,.69,1.08,1.63,2.88,2.38,2.84,1.29-.07,2.55-1.28,3.74-2.12,.4-.28,.56-.9,.82-1.36,.28,.55,.62,1.07,.82,1.65,.58,1.7,1.38,3.38,1.58,5.13,.36,3.08-1.14,4.72-4.25,5.12-.63,.08-1.28,.01-1.54,.01Z"/>
  <path class="cls-2" d="M52.66,43.22c3.33-3.12,5.3-3.32,8.34-.84,.92,2.48,1.72,4.97-.05,7.42-.04,.05-.2,1.87-1.03,.15-1.31-2.73-3.36-3.02-5.21-.63-1.26,1.63-1.39,.43-1.85-.34-1.13-1.88-1.76-3.79-.21-5.77Z"/>
  <path class="cls-2" d="M16.34,102.93c.44-3.03,.81-6.08,1.34-9.1,.36-2.06,2.93-3.42,4.77-2.52,.33,.16,.45,1.35,.23,1.91-.68,1.76-1.7,3.39-2.34,5.16-.63,1.74-1.34,3.55,.73,5.12,.4,.31,.11,2.17-.43,2.87-.45,.58-1.78,.74-2.66,.62-.54-.07-1.17-.95-1.37-1.59-.24-.74-.06-1.62-.06-2.44-.07,0-.14-.01-.21-.02Z"/>
  <path class="cls-1" d="M175.96,121.91c.2-.2,.39-.39,.59-.59-.2,.2-.39,.39-.59,.59Z"/>
  <path class="cls-1" d="M110.59,145.49c-.68,1.55-1.39,3.08-2.02,4.65-.14,.36,.02,.84,.04,1.26,.3-.18,.59-.38,.91-.53,.72-.34,1.45-.65,2.18-.98-2.26,2.48-4.51,4.96-6.78,7.42-.17,.19-.47,.26-.7,.38-.08-.23-.3-.53-.23-.68,2.03-3.9,4.08-7.79,6.16-11.67,.01-.02,.29,.09,.45,.14Z"/>
  <path class="cls-1" d="M106.02,148.54c-2.15,5.24-4.28,10.48-6.48,15.7-.3,.72-.97,1.29-1.47,1.93,.23-.73,.44-1.48,.7-2.2,1.06-2.86,2.03-5.76,3.23-8.57,1.05-2.46,2.36-4.81,3.56-7.21,.15,.12,.31,.23,.46,.35Z"/>
  <path class="cls-1" d="M117.72,137.8l-5.52,6.08c.58-3.16,2.67-4.96,5.52-6.08Z"/>
  <path class="cls-1" d="M103.91,158.47c-1.02,2.78-1.98,5.39-2.95,8-.04,.11-.38,.23-.4,.19-.16-.19-.43-.48-.38-.63,.98-2.59,2.01-5.17,3.04-7.75,.05-.13,.3-.18,.46-.26,.11,.21,.22,.43,.24,.46Z"/>
  <path class="cls-1" d="M136.37,131.24c1.39-.76,2.75-1.57,4.17-2.28,1.53-.77,3.11-1.44,4.67-2.15,.02,.22,.12,.6,.06,.62-2.96,1.29-5.93,2.54-8.9,3.81Z"/>
  <path class="cls-1" d="M147.92,125.2l6.11-2.76-6.11,2.76Z"/>
  <path class="cls-1" d="M125.38,138.92c1.66-1.11,3.33-2.22,4.99-3.33-1.03,2.06-2.77,3.04-4.99,3.33Z"/>
  <path class="cls-1" d="M112.75,148.82c.74-.75,1.48-1.5,2.22-2.25-.74,.75-1.48,1.5-2.22,2.25Z"/>
  <path class="cls-1" d="M120.47,136.15c-.31,1.58-1.47,1.76-2.78,1.68,.93-.56,1.86-1.12,2.78-1.68Z"/>
  <path class="cls-1" d="M121.53,141.67c.94-.55,1.87-1.11,2.81-1.66-.94,.55-1.87,1.11-2.81,1.66Z"/>
  <path class="cls-1" d="M116.05,146.08c.56-.57,1.11-1.13,1.67-1.7-.56,.57-1.11,1.13-1.67,1.7Z"/>
  <path class="cls-1" d="M130.33,135.63c.56-.38,1.13-.76,1.69-1.13,.1,1.36-.75,1.32-1.69,1.13Z"/>
  <path class="cls-1" d="M117.68,144.41c.57-.38,1.13-.75,1.7-1.13-.57,.38-1.13,.75-1.7,1.13Z"/>
  <path class="cls-1" d="M134.72,132.34c.56-.38,1.13-.75,1.69-1.13,.06,1.3-.73,1.36-1.69,1.13Z"/>
  <path class="cls-1" d="M124.3,140.04c.37-.38,.75-.77,1.12-1.15-.37,.38-.75,.77-1.12,1.15Z"/>
  <path class="cls-1" d="M133.09,134c.38-.38,.75-.76,1.13-1.14-.38,.38-.75,.76-1.13,1.14Z"/>
  <path class="cls-1" d="M146.84,126.32c.37-.38,.75-.77,1.12-1.15-.37,.38-.75,.77-1.12,1.15Z"/>
  <path class="cls-1" d="M145.17,126.84c.57-.19,1.14-.37,1.71-.56-.57,.19-1.14,.37-1.71,.56Z"/>
  <path class="cls-1" d="M119.88,142.76c.38-.19,.77-.38,1.15-.58-.38,.19-.77,.38-1.15,.58Z"/>
  <path class="cls-1" d="M131.97,134.53c.38-.19,.77-.38,1.15-.56-.38,.19-.77,.38-1.15,.56Z"/>
  <path class="cls-1" d="M114.93,146.61c.39-.19,.77-.38,1.16-.56-.39,.19-.77,.38-1.16,.56Z"/>
  <path class="cls-1" d="M111.14,144.94c-.2,.2-.39,.39-.59,.59,.2-.2,.39-.39,.59-.59Z"/>
  <path class="cls-1" d="M112.2,149.37c.2-.2,.39-.39,.59-.59-.2,.2-.39,.39-.59,.59Z"/>
  <path class="cls-1" d="M105.56,148.19c.16-.2,.33-.4,.49-.61,.15,.13,.29,.26,.44,.38-.16,.19-.31,.38-.47,.57-.15-.12-.31-.23-.46-.35Z"/>
  <path class="cls-1" d="M106.05,147.58c.18-.09,.36-.17,.53-.26-.03,.21-.06,.43-.1,.64-.15-.13-.29-.26-.44-.38Z"/>
  <path class="cls-1" d="M111.69,144.39c-.2,.2-.39,.39-.59,.59,.2-.2,.39-.39,.59-.59Z"/>
  <path class="cls-1" d="M111.65,149.92c.2-.2,.39-.4,.59-.59-.2,.2-.39,.4-.59,.59Z"/>
  <path class="cls-1" d="M112.24,143.84c-.2,.2-.39,.39-.59,.59,.2-.2,.39-.39,.59-.59Z"/>
  <path class="cls-1" d="M119.34,143.32c.2-.2,.39-.4,.59-.59-.2,.2-.39,.4-.59,.59Z"/>
  <path class="cls-1" d="M120.99,142.22c.2-.2,.39-.4,.59-.59-.2,.2-.39,.4-.59,.59Z"/>
  <path class="cls-1" d="M134.18,132.89c.2-.2,.39-.4,.59-.59-.2,.2-.39,.4-.59,.59Z"/>
  <path class="cls-1" d="M156.18,118.63c.37-.38,.75-.77,1.12-1.15-.37,.38-.75,.77-1.12,1.15Z"/>
  <path class="cls-1" d="M186.99,104.31c-.37,.38-.75,.76-1.12,1.15,.37-.38,.75-.76,1.12-1.15Z"/>
  <path class="cls-1" d="M86.9,186.13c.93-1.29,1.87-2.58,2.8-3.87-.72,1.45-.85,3.31-2.8,3.87Z"/>
  <path class="cls-1" d="M84.7,189.42c.74-1.11,1.49-2.22,2.23-3.33,.05,1.64-.67,2.77-2.23,3.33Z"/>
  <path class="cls-1" d="M83.62,191.64c.37-.75,.74-1.5,1.11-2.25-.37,.75-.74,1.5-1.11,2.25Z"/>
  <path class="cls-1" d="M228.77,79.06c-.38,.56-.75,1.13-1.13,1.69,.38-.56,.75-1.13,1.13-1.69Z"/>
  <path class="cls-1" d="M227.68,80.71c-.2,.2-.39,.39-.59,.59,.2-.2,.39-.39,.59-.59Z"/>
  <path class="cls-1" d="M233.19,77.97c-.2,.2-.39,.39-.59,.59,.2-.2,.39-.39,.59-.59Z"/>
  <path class="cls-1" d="M233.74,77.42c-.2,.2-.39,.39-.59,.59,.2-.2,.39-.39,.59-.59Z"/>
</svg>