<?xml version="1.0" encoding="UTF-8"?>
<!-- Generated by Pixelmator Pro 3.6.4 -->
<svg width="370" height="370" viewBox="0 0 370 370" xmlns="http://www.w3.org/2000/svg">
    <path id="Shape" fill="#ffffff" fill-rule="evenodd" stroke="none" d="M 214.058868 369.960846 C 211.001495 369.939331 207.140518 369.329376 205.478928 368.605377 C 203.817337 367.881409 201.206009 365.647797 199.675964 363.641815 C 198.14592 361.635803 196.415863 358.622772 195.83139 356.946167 C 195.051254 354.708282 195.10289 352.704163 196.025574 349.408691 C 196.716843 346.939697 198.513397 343.370667 200.017899 341.477478 C 201.522415 339.58429 203.691727 335.664886 204.838608 332.76767 C 205.985474 329.870453 208.098083 323.450012 209.533295 318.5 C 210.968506 313.549988 212.581085 307.25 213.116821 304.5 C 213.652542 301.75 214.558945 296.799988 215.131027 293.5 C 215.70311 290.200012 216.549805 285.25 217.012589 282.5 C 217.475357 279.75 217.886841 269.743958 217.927002 260.264343 C 217.967148 250.784744 217.49794 240.88475 216.884323 238.264359 C 216.270706 235.643951 215.146378 232.023636 214.385818 230.219177 C 213.625244 228.414734 212.298706 226.668121 211.437943 226.337814 C 210.577179 226.007507 207.539017 226.924973 204.686462 228.376602 C 201.833908 229.828247 196.891312 232.975693 193.702927 235.370911 C 190.514542 237.766129 184.097977 242.994766 179.443893 246.990082 C 171.996063 253.383728 170.800873 254.877151 169.4711 259.451416 C 168.249863 263.652344 167.332611 264.947815 164.685837 266.209991 C 161.830017 267.571838 161.066223 267.590576 158.711212 266.356689 C 157.226089 265.578552 155.108521 263.172882 154.005508 261.010773 C 152.653442 258.360535 152 255.111755 152 251.039841 C 152 246.333344 152.441513 244.558487 154 243 C 155.12085 241.87915 157.333328 241 159.033249 241 C 160.701523 241 164.316498 239.859833 167.066528 238.466293 C 169.816544 237.072754 174.467712 234.396576 177.402451 232.519257 C 180.337189 230.641922 186.681229 227.232666 191.50032 224.943115 C 196.319397 222.653564 203.015778 219.790466 206.381149 218.580643 C 212.5 216.380981 212.5 216.380981 212.5 209.262146 C 212.5 203.365311 212.111526 201.658951 210.236908 199.321655 C 208.992203 197.769745 207.243988 195.084991 206.352005 193.355515 C 205.336182 191.385956 204.977463 189.225922 205.391953 187.574509 C 205.75589 186.124405 207.504105 184.053604 209.27684 182.972717 C 211.378418 181.69133 214.295929 181.00618 217.661102 181.003738 C 222.212204 181.000443 223.131897 181.368042 225.442352 184.113861 C 227.193008 186.194397 227.855515 187.879868 227.438782 189.192902 C 227.095734 190.273758 226.406662 192.582047 225.907532 194.322433 C 225.408386 196.062836 225 200.584778 225 204.371201 C 225 211.255615 225 211.255615 229.25 210.607986 C 231.587494 210.251785 235.75 209.302216 238.5 208.497803 C 241.25 207.693405 247.324997 206.109299 252 204.97757 C 257.221191 203.713608 265.79248 202.685654 274.220245 202.312714 C 285.776367 201.801331 288.647644 201.975632 292.423645 203.417694 C 294.889374 204.35936 298.327362 206.747742 300.063568 208.725189 C 302.764709 211.80159 303.145294 212.880173 302.700317 216.197708 C 302.414276 218.330154 300.968353 221.663788 299.487091 223.605804 C 298.005859 225.547821 294.927795 228.51326 292.646973 230.195694 C 290.366119 231.878128 285.197235 234.779343 281.160492 236.642868 C 276.670227 238.715759 270.847168 240.452271 266.160492 241.116043 C 261.947235 241.712784 253.774994 242.428192 248 242.705841 C 239.740387 243.102966 236.461472 242.850479 232.632767 241.522568 C 229.574387 240.461838 227.414078 240.185913 226.819855 240.780136 C 226.261627 241.338379 225.983536 251.921707 226.141083 266.612915 C 226.336288 284.814514 225.938522 296.066742 224.660416 308.5 C 223.699249 317.850006 222.257446 326.977783 221.456421 328.783936 C 220.631424 330.644104 220 335.110962 220 339.086975 C 220 344.900513 220.423553 346.729431 222.466049 349.735229 C 223.822372 351.731232 225.223587 355.308167 225.579865 357.68399 C 226.063507 360.90921 225.788696 362.699921 224.495178 364.751831 C 223.542328 366.263306 222.055099 368.0625 221.190231 368.75 C 220.325363 369.4375 217.116241 369.982391 214.058868 369.960846 Z M 111.712074 318 C 105.975349 318 105.101563 317.715454 102.5 315 C 100.143402 312.540253 98.804123 311.99411 95.062912 311.967346 C 92.553307 311.949402 88.025002 311.064087 85 310 C 81.974998 308.935913 77.956451 308.050598 76.069885 308.032654 C 73.323318 308.0065 71.821007 307.120789 68.531105 303.587982 C 65.648712 300.492767 63.724846 297.048096 62.085121 292.046448 C 60.523327 287.282562 59.921883 283.61908 60.272461 281.00531 C 60.561028 278.853882 61.710632 275.81076 62.827141 274.242767 C 63.943645 272.674774 66.424187 270.547974 68.339462 269.516541 C 70.548592 268.326843 72.012154 266.689209 72.342506 265.037445 C 72.628922 263.605408 73.794022 261.5914 74.931625 260.56189 C 76.503098 259.139709 77 257.475739 77 253.635498 C 77 248.901672 76.705841 248.310913 72.363663 244.324341 C 68.139816 240.446442 67.777939 239.755829 68.296211 236.562073 C 68.6091 234.633957 70.200523 231.131226 71.832695 228.778214 C 73.464874 226.425186 76.144493 223.226913 77.787407 221.670914 C 79.430321 220.114929 82.512756 218.222183 84.63726 217.464813 C 86.761765 216.707443 90.178925 216.068039 92.230949 216.0439 C 95.433868 216.00621 96.057762 215.618042 96.639267 213.301147 C 97.157928 211.234634 96.871407 210.356018 95.416374 209.551147 C 94.371231 208.973022 92.162483 207.112747 90.508057 205.417221 C 88.824905 203.692261 86.288757 199.031906 84.75 194.836349 C 83.237503 190.712402 82 185.317307 82 182.84726 C 82 180.377228 82.746147 176.166443 83.658112 173.48999 C 84.863861 169.951324 87.523857 166.318619 93.408112 160.174637 C 97.85865 155.527649 103.263519 150.54982 105.418938 149.112793 C 108.710251 146.918442 110.792198 146.419922 118.418938 146 C 127.5 145.5 127.5 145.5 123.26226 140.901474 C 120.931511 138.372284 118.344009 134.67424 117.51226 132.683594 C 116.680519 130.692947 116.001678 126.687286 116.003738 123.78212 C 116.006157 120.364746 116.66748 117.440918 117.877029 115.5 C 118.905281 113.850006 121.0411 111.291138 122.623291 109.813629 C 124.205482 108.336121 126.766792 106.648621 128.315094 106.063629 C 129.863403 105.478638 132.615219 105 134.430237 105 C 136.24527 105 138.868988 104.104309 140.260727 103.009552 C 141.652481 101.914795 143.776031 99.327301 144.979721 97.259552 C 146.183426 95.191803 148.817902 91.775421 150.834137 89.667572 C 152.850357 87.559753 155.807159 85.149658 157.404785 84.311859 C 159.102829 83.421387 161.595444 83.005676 163.404785 83.311188 C 165.107147 83.598633 169.130463 85.048859 172.345474 86.533905 C 177.211258 88.781494 178.601822 89.046814 180.642517 88.117004 C 181.990891 87.502655 184.815735 87 186.919937 87 C 189.024139 87 192.832794 87.923187 195.383591 89.051544 C 197.934402 90.179871 200.743362 92.204865 201.625717 93.551544 C 202.508087 94.898193 203.740768 95.994415 204.365005 95.98761 C 204.989258 95.980804 206.52774 94.388885 207.783859 92.450012 C 209.039978 90.511108 211.177475 88.502808 212.533859 87.987122 C 213.972488 87.440155 215.937454 87.411621 217.25 87.91864 C 218.487503 88.396698 220.540619 89.906982 221.8125 91.274872 C 223.084366 92.642761 224.37674 94.72467 224.684448 95.901367 C 225.212158 97.919281 225.80275 98.031372 235.086426 97.875427 C 244.928909 97.710083 244.928909 97.710083 247.350159 94.105042 C 248.892136 91.809174 250.006516 88.336578 250.418808 84.542603 C 250.774887 81.266052 251.878159 77.302856 252.870514 75.735535 C 253.862869 74.168213 256.82196 71.111542 259.446289 68.942932 C 262.103912 66.746796 265.292664 65 266.644073 65 C 267.978546 65 270.182892 65.728973 271.542664 66.619934 C 273.858826 68.137512 274.339722 68.100159 279.156036 66.028229 C 282.203979 64.717041 285.356232 64.032837 286.898529 64.347717 C 288.329346 64.639801 290.736664 65.18338 292.248138 65.555634 C 294.07605 66.005798 295.834076 65.683533 297.498138 64.59317 C 298.874176 63.691559 300 62.041931 300 60.927277 C 300 59.812653 300.658356 57.627563 301.463013 56.071533 C 302.26767 54.515472 303.584778 52.989563 304.389923 52.680603 C 305.195068 52.371643 306.744629 50.105072 307.833374 47.643768 C 308.922119 45.182465 310.972321 42.409027 312.389343 41.48056 C 314.497162 40.099457 315.541443 39.993103 318.13092 40.895782 C 320.453308 41.705383 321.656036 41.700409 322.648041 40.877136 C 323.391602 40.26001 324 38.270111 324 36.455109 C 324 33.570923 323.559387 33.009674 320.503113 32.001038 C 318.579803 31.366272 316.329803 29.881256 315.503113 28.700958 C 314.676392 27.520691 314 25.365814 314 23.912354 C 314 22.458893 314.939728 20.075043 316.088287 18.614868 C 317.236847 17.154724 319.464508 15.294037 321.038635 14.480011 C 322.612762 13.666016 324.935516 12.998779 326.200348 12.997284 C 327.81601 12.995392 329.094879 11.904999 330.5 9.331238 C 331.600006 7.316376 333.287506 5.182404 334.25 4.58905 C 335.515472 3.808929 336.484528 3.829132 337.75 4.662048 C 338.712494 5.295563 339.276001 6.418274 339.002258 7.156952 C 338.728485 7.89563 338.503479 11.283569 338.502258 14.685699 C 338.500244 20.186676 338.829376 21.215027 341.475433 23.975708 C 343.274078 25.852295 345.251556 26.965332 346.475433 26.790009 C 347.987793 26.573364 348.584167 25.614502 348.832672 23 C 349.015625 21.075012 348.659515 17.810669 348.041321 15.745972 C 347.423096 13.681244 345.810913 11.266968 344.458649 10.380951 C 343.106384 9.494904 342 7.907623 342 6.853607 C 342 5.799591 342.715912 4.662506 343.590881 4.326752 C 344.465881 3.990967 346.642242 4.412689 348.427216 5.263885 C 350.769592 6.38089 352.28537 8.235901 353.874725 11.93045 C 355.59494 15.929199 356.054108 18.849365 355.972992 25.274689 C 355.915863 29.798615 356.141693 36.200012 356.474823 39.5 C 356.974792 44.452667 356.732727 46.057831 355.088013 48.695679 C 353.992126 50.453278 351.966156 52.631317 350.585846 53.535706 C 349.205536 54.440125 346.259064 55.423828 344.038086 55.72171 C 341.817139 56.019623 340 56.622223 340 57.060852 C 340 57.499481 342.754883 60.477753 346.121979 63.679199 C 349.489075 66.880646 353.36969 71.78479 354.745605 74.577301 C 357.1185 79.393311 357.223114 80.319672 356.778595 92.577301 C 356.490601 100.519135 355.721741 107.124786 354.783844 109.715454 C 353.944489 112.033966 350.982086 116.557724 348.200745 119.768265 C 344.350342 124.21286 341.002441 126.726318 334.168884 130.302795 C 326.40155 134.367996 324.392975 135 319.240784 135 C 313.920715 135 312.774719 135.391632 308.464661 138.682587 C 304.668518 141.581146 302.514709 142.458633 298.3479 142.804169 C 293.731964 143.186966 292.442322 142.849915 288.277039 140.172211 C 285.649658 138.48317 281.493805 135.053452 279.041779 132.550613 C 276.589783 130.047775 273.718384 128 272.66095 128 C 271.037781 128 270.829987 128.506195 271.326843 131.25 C 271.650513 133.037506 272.609406 136.709015 273.457672 139.408936 C 274.305969 142.108841 274.998322 146.38385 274.996277 148.908936 C 274.994019 151.665207 274.241455 154.698929 273.113159 156.5 C 272.079498 158.149994 269.718689 161.074997 267.866913 163 C 266.015106 164.925003 261.836639 168.737122 258.58139 171.471375 C 255.326157 174.205627 250.63739 177.468124 248.161911 178.721375 C 244.454742 180.598175 242.049927 181 234.524796 181 C 226.308365 181 225.041809 180.744019 221.944275 178.457367 C 220.049927 177.058914 217.47435 175.65683 216.220764 175.341614 C 214.668365 174.951263 212.621643 175.682373 209.802505 177.634262 C 206.02211 180.251694 204.909836 180.5 196.965469 180.5 C 190.602554 180.5 187.238388 180.009003 184.43428 178.671066 C 182.326035 177.665161 179.228348 175.692383 177.550552 174.28714 C 175.872742 172.881897 173.451431 170.267731 172.169846 168.477875 C 170.888245 166.688034 169.588257 163.349136 169.280975 161.058105 C 168.838333 157.75798 168.387543 157.019592 167.11113 157.50383 C 166.225006 157.840012 164.600006 158.717957 163.5 159.454819 C 162.399994 160.191681 159.843185 162.52829 157.818192 164.647293 C 155.793182 166.766281 153.146851 169.770767 151.937439 171.323944 C 149.73851 174.147888 149.73851 174.147888 153.309723 177.823944 C 155.27388 179.845779 157.346512 182.737305 157.915543 184.249573 C 158.484589 185.761841 158.679459 188.352692 158.348587 190.007034 C 158.017715 191.661392 156.213272 194.361588 154.338715 196.007477 C 151.938889 198.114548 149.892319 199 147.422043 199 C 144.492767 199 143.153427 199.825302 139.307892 204 C 135.376953 208.26738 134.160538 209 131.006042 209 C 128.731842 209 126.725082 209.673218 125.789581 210.75 C 124.953362 211.712494 123.037888 214.975006 121.532974 218 C 120.028053 221.024994 117.460457 227.100006 115.827194 231.5 C 114.193932 235.899994 112.608406 240.737503 112.30381 242.25 C 111.802704 244.738281 112.023613 245.001556 114.625 245.016449 C 116.206253 245.025497 119.290825 246.04718 121.479614 247.286835 C 123.710968 248.550598 126.449402 251.289032 127.713165 253.520386 C 128.952835 255.709167 129.974503 259.165894 129.983551 261.201965 C 129.99794 264.442047 130.547089 265.280334 134.384888 267.920807 C 136.79657 269.580078 139.905777 272.28772 141.29422 273.937805 C 142.682648 275.587891 144.577164 279.221619 145.504242 282.012756 C 147.095749 286.804382 147.090714 287.418457 145.413971 293.016052 C 144.437241 296.276733 142.032028 301.054169 140.069046 303.632568 C 138.106079 306.210999 134.909973 309.598267 132.966614 311.159851 C 131.023254 312.721436 126.871994 314.899292 123.7416 315.999542 C 120.351608 317.19104 115.486984 318 111.712074 318 Z M 112 309.473267 C 113.375 309.23291 116.525002 308.749237 119 308.398438 C 121.474998 308.047668 124.625 307.081238 126 306.250885 C 127.375 305.420502 129.794525 303.561859 131.376709 302.120544 C 132.958908 300.67926 135.094711 298.149994 136.122971 296.5 C 137.304688 294.60376 137.993896 291.640472 137.996262 288.44577 C 137.999146 284.552032 137.316254 282.313416 135.022018 278.69577 C 133.054169 275.592804 131.347534 274 129.990646 274 C 128.861267 274 127.662514 274.715912 127.326744 275.590881 C 126.990982 276.465881 127.455101 278.73114 128.358139 280.624817 C 129.261154 282.518494 129.998322 285.740082 129.996262 287.783936 C 129.994202 289.827759 129.15123 292.850006 128.122971 294.5 C 127.094719 296.149994 124.9589 298.69162 123.376709 300.148041 C 121.794518 301.604462 118.925003 303.740295 117 304.894287 C 115.074997 306.04834 112.289055 306.994202 110.809013 306.996277 C 109.328979 306.998322 107.86367 307.41156 107.552788 307.914581 C 107.241898 308.417603 107.552841 309.072418 108.243767 309.369751 C 108.9347 309.667053 110.625 309.713623 112 309.473267 Z M 93.976944 303 C 99.268524 303 100.144073 302.709747 101.612404 300.468781 C 102.52459 299.07663 103.066765 297.733429 102.817245 297.483917 C 102.567726 297.234375 100.611618 297.923431 98.470345 299.015137 C 96.329071 300.106812 93.097267 301 91.288559 301 C 89.479851 301 88 301.450012 88 302 C 88 302.555115 90.658981 303 93.976944 303 Z M 76.964035 301 C 78.018898 301 79.103706 300.641205 79.374725 300.202698 C 79.645744 299.764191 77.829971 298.174683 75.339676 296.670502 C 72.84938 295.166321 70.966698 294.330536 71.155937 294.813232 C 71.345169 295.295929 72.297874 296.885437 73.273056 298.345428 C 74.24823 299.80545 75.909172 301 76.964035 301 Z M 86.571426 288 C 87.35714 288 88 287.658264 88 287.24054 C 88 286.822845 87.064827 285.897064 85.921844 285.183258 C 84.778862 284.469452 83.368591 284.043793 82.787918 284.237366 C 82.173851 284.442047 82.445625 285.302765 83.4375 286.294647 C 84.37545 287.232605 85.785713 288 86.571426 288 Z M 103.487785 279.743408 C 104.594505 279.524048 106.849998 278.630432 108.5 277.757599 C 110.150002 276.884766 112.962502 274.648315 114.75 272.78772 C 117.566681 269.855835 118 268.711151 118 264.202393 C 118 261.341064 117.550003 259 117 259 C 116.449997 259 116 260.697479 116 262.772156 C 116 265.535217 115.149551 267.57605 112.820862 270.401154 C 111.072342 272.52243 107.481323 275.258942 104.84082 276.4823 C 102.200325 277.705658 100.362938 279.029602 100.757744 279.424408 C 101.15255 279.819214 102.381073 279.962769 103.487785 279.743408 Z M 96.403358 270 C 98.100975 270 97.870323 269.53476 94.962227 267.093109 C 92.156021 264.737 91.432022 264.48761 91.141258 265.777008 C 90.943954 266.651947 91.592461 267.960052 92.58239 268.683899 C 93.572319 269.407745 95.291756 270 96.403358 270 Z M 162.042587 258.473694 C 162.569168 258.148254 163 257.108643 163 256.163483 C 163 255.218323 162.299484 253.444885 161.443298 252.222504 C 160.587112 251.000122 159.462112 250 158.943298 250 C 158.424484 250 158 250.697357 158 251.549652 C 158 252.401978 158.694168 254.441681 159.542587 256.082367 C 160.391006 257.723022 161.516006 258.799133 162.042587 258.473694 Z M 87 255 C 88.134521 255 89.308296 254.360168 89.608391 253.57814 C 89.908478 252.796112 89.653526 251.221115 89.041817 250.07814 C 88.430115 248.935165 87.511299 248 87 248 C 86.488701 248 85.569885 248.935165 84.958183 250.07814 C 84.346474 251.221115 84.091522 252.796112 84.391609 253.57814 C 84.691704 254.360168 85.865479 255 87 255 Z M 83.5 240.609451 C 84.599998 240.444 87.128181 239.611923 89.118179 238.760422 C 91.108177 237.908905 93.957787 235.610825 95.450645 233.653595 C 96.943504 231.69635 98.009827 229.289536 97.820244 228.305099 C 97.630653 227.320663 96.147385 225.878662 94.524078 225.100632 C 91.901329 223.843582 90.958939 223.898422 86.062584 225.593018 C 82.059639 226.978409 79.929962 228.429367 78.276283 230.897888 C 77.024323 232.766724 76 235.316711 76 236.564545 C 76 238.12117 76.86322 239.159317 78.75 239.871811 C 80.262497 240.442978 82.400002 240.774918 83.5 240.609451 Z M 248.5 234.955658 C 252.350006 234.932144 257.299988 234.507599 259.5 234.012222 C 261.700012 233.516846 266.561279 232.413391 270.302826 231.560074 C 274.044373 230.706772 279.444397 228.89064 282.302826 227.524231 C 285.161285 226.157822 288.985748 224.123367 290.801666 223.003204 C 293.940552 221.066971 294.08847 220.708496 293.801666 215.733276 C 293.5 210.5 293.5 210.5 287.701538 209.580826 C 283.8815 208.975281 278.592957 209.051331 272.201538 209.803726 C 266.865692 210.43187 258.899994 211.592026 254.5 212.381866 C 250.100006 213.171692 243.819427 214.57222 240.543167 215.494156 C 237.266922 216.416077 232.857498 218.052383 230.744446 219.130371 C 228.631409 220.208359 226.650009 221.748505 226.341324 222.552902 C 226.032654 223.3573 226.53775 225.171768 227.463776 226.585052 C 228.389786 227.998337 231.926758 230.469498 235.323715 232.076538 C 240.367783 234.462784 242.783218 234.990585 248.5 234.955658 Z M 105 218.5 C 105.550003 218.16008 106 216.783524 106 215.440979 C 106 214.09845 105.550003 213 105 213 C 104.449997 213 104 214.376556 104 216.059021 C 104 217.843719 104.41658 218.86058 105 218.5 Z M 127.160446 203 C 128.226822 203 130.446304 202.303452 132.092621 201.452103 C 133.738937 200.600754 135.45871 198.913254 135.914337 197.702103 C 136.369965 196.490952 136.521011 194.013367 136.25 192.19635 C 135.894852 189.815231 135.296982 188.977493 134.108963 189.19635 C 133.202408 189.363358 130.669525 190.820755 128.480347 192.435013 C 126.291153 194.049271 123.599998 196.214188 122.5 197.245941 C 120.503593 199.118469 120.504242 199.12532 122.860786 201.060913 C 124.159218 202.127411 126.094063 203 127.160446 203 Z M 97.735184 202 C 98.76049 202 98.821953 201.535828 98 200 C 97.411301 198.899994 96.270462 198 95.464813 198 C 94.659164 198 94 198.360001 94 198.800003 C 94 199.240005 94.540001 200.139999 95.199997 200.800003 C 95.860001 201.460007 97.000832 202 97.735184 202 Z M 40 199.409424 C 38.625 199.716156 36.079742 199.338989 34.343868 198.571289 C 32.607994 197.803604 29.605505 195.448975 27.671669 193.338791 C 25.737831 191.228607 23.346447 187.121597 22.357479 184.212112 C 21.025507 180.293518 20.835072 178.478531 21.622898 177.21106 C 22.207846 176.269974 24.44449 174.306183 26.59322 172.847092 C 29.051731 171.177628 31.49016 168.211975 33.171009 164.847092 C 34.640064 161.906189 37.606789 155 39.763729 149.5 C 41.92067 144 45.065022 135.225006 46.751179 130 C 48.437332 124.774994 51.008606 116.449997 52.465115 111.5 C 53.921627 106.549988 56.011715 99.575012 57.109756 96 C 58.207798 92.424988 59.562996 87.700012 60.121311 85.5 C 60.679626 83.299988 61.623096 80.610748 62.217915 79.523865 C 62.812733 78.436981 63.52248 74.429871 63.795135 70.619202 C 64.255898 64.179413 64.157158 63.72821 62.395435 64.222839 C 61.352943 64.515533 57.069386 67.038971 52.876408 69.830444 C 48.683434 72.621948 43.343697 77.064575 41.010323 79.702942 C 38.676952 82.341339 34.911476 87.200012 32.642601 90.5 C 30.37372 93.799988 27.996702 98.506317 27.360338 100.958466 C 26.723972 103.410645 25.170889 106.25296 23.90904 107.27475 C 22.609114 108.327362 20.75301 108.907166 19.626406 108.612549 C 18.532804 108.326569 16.50433 106.958862 15.118684 105.573242 C 13.269313 103.723846 12.620687 102.049469 12.679642 99.276947 C 12.723814 97.199615 13.064553 93.25 13.43684 90.5 C 13.809128 87.75 14.760733 84.027283 15.551518 82.227295 C 16.342304 80.427277 18.146011 78.514801 19.559755 77.977295 C 20.973499 77.439789 23.494051 77 25.160978 77 C 27.145626 77 31.00631 75.14798 36.345879 71.634491 C 40.830647 68.683441 48.549999 63.684204 53.5 60.525085 C 58.450001 57.365967 63.381477 53.936462 64.458839 52.903992 C 65.996979 51.429932 66.468193 49.466766 66.65284 43.763367 C 66.782173 39.768524 66.387428 34.024994 65.775627 31 C 65.163826 27.975006 63.831589 23.815857 62.815102 21.757446 C 61.165676 18.417328 61.116985 17.655792 62.362293 14.675354 C 63.129734 12.838593 64.997856 10.36026 66.51368 9.167908 C 68.358658 7.716644 70.674225 7 73.518494 7 C 77.206955 7 78.244194 7.527893 81.383636 11.002869 C 83.859932 13.743835 85 15.959595 85 18.031342 C 85 19.695404 83.471436 24.30661 81.603188 28.278442 C 79.73494 32.250305 77.883362 37.93042 77.488586 40.90097 C 76.858841 45.639435 76.968994 46.222443 78.386574 45.653809 C 79.275253 45.297363 81.239319 44.545135 82.751175 43.982208 C 84.263031 43.419312 86.400002 42.571899 87.5 42.099091 C 88.599998 41.626282 91.300003 40.540192 93.5 39.685608 C 95.699997 38.830994 99.974998 37.253845 103 36.180847 C 106.025002 35.107849 111.348846 33.503204 114.830765 32.61496 C 118.312691 31.726746 123.644684 31 126.679634 31 C 129.744217 31 133.749496 31.736359 135.687698 32.656097 C 137.994476 33.750732 139.871033 35.739349 141.222839 38.521759 C 143.238464 42.670532 143.241211 42.80191 141.413223 47.615662 C 140.364151 50.378235 137.590927 54.468048 135.029205 57.030487 C 132.387512 59.672943 126.540955 63.602661 121 66.460144 C 115.775002 69.154694 108.872406 72.178497 105.660904 73.179657 C 101.966019 74.331543 96.740623 75 91.431145 75 C 85.970039 75 81.60215 74.4245 78.920921 73.351685 C 75.688339 72.058258 74.634895 71.972717 74.028198 72.954376 C 73.602959 73.642426 72.453011 76.746674 71.472771 79.852692 C 70.492523 82.95871 68.444008 89.325012 66.920509 94 C 65.397011 98.674988 62.479443 108.575012 60.437027 116 C 58.394608 123.425003 56.087132 132.875 55.309299 137 C 54.531467 141.125 53.46962 147.425003 52.949635 151 C 52.429649 154.574997 51.282764 160.571304 50.400997 164.325119 C 49.51923 168.078949 48.801922 172.578949 48.806973 174.325119 C 48.812023 176.071304 49.268539 180.649994 49.821445 184.5 C 50.697342 190.598999 50.601059 191.821793 49.073433 194 C 48.109116 195.375 46.2356 197.029144 44.910065 197.675873 C 43.58453 198.322601 41.375 199.102707 40 199.409424 Z M 146.15126 192 C 148.022324 192 149.487701 191.185303 150.559875 189.548965 C 151.531036 188.066788 151.901154 186.263901 151.496201 184.988007 C 151.127884 183.827545 149.729294 182.378159 148.388245 181.76712 C 146.237549 180.787201 145.54071 181.052826 142.480194 184.019196 C 139.010437 187.382217 139.010437 187.382217 141.179535 189.691101 C 142.444672 191.037781 144.516617 192 146.15126 192 Z M 38.068684 191 C 40.096218 191 42.297371 190.346619 42.960133 189.548035 C 43.62289 188.749466 44.001347 187.286957 43.801144 186.298035 C 43.508194 184.850983 42.628063 184.560364 39.292297 184.809235 C 35.65694 185.080444 34.869434 184.742416 32.88567 182.059235 C 31.641685 180.376648 29.981026 179 29.195311 179 C 28.310781 179 27.957327 179.666458 28.267195 180.75 C 28.542446 181.712494 29.290194 183.850006 29.928854 185.5 C 30.567514 187.149994 31.830801 189.0625 32.736156 189.75 C 33.641514 190.4375 36.041149 191 38.068684 191 Z M 111.273659 188 C 111.790833 188 111.914169 187.212494 111.547745 186.25 C 111.181313 185.287506 110.458168 184.072495 109.940758 183.550003 C 109.350052 182.953491 109 183.356598 109 184.633331 C 109 185.751663 109.300003 186.96666 109.666664 187.333328 C 110.033333 187.699997 110.756477 188 111.273659 188 Z M 89.992935 185.504364 C 90.546822 185.162048 91.00988 183.44603 91.021965 181.690979 C 91.034042 179.935944 91.876297 176.699997 92.893639 174.5 C 93.910988 172.300003 97.311798 167.935364 100.451004 164.800812 C 103.590202 161.666245 108.147949 158.138611 110.579323 156.961594 C 113.010696 155.784592 115 154.411728 115 153.910797 C 115 153.409851 114.051926 153 112.893158 153 C 111.734398 153 108.471901 154.777115 105.643158 156.949142 C 102.814423 159.121155 99.30661 161.818848 97.848022 162.944016 C 96.389435 164.069168 94.097763 166.904556 92.755409 169.244873 C 91.413063 171.58519 89.73983 175.621918 89.037117 178.215393 C 88.334404 180.808853 88.0354 183.649872 88.372665 184.528778 C 88.70993 185.407669 89.439056 185.84668 89.992935 185.504364 Z M 194.127548 173.929367 C 196.252686 173.970749 198.285934 173.360382 199.036789 172.455673 C 200.112976 171.158951 199.93219 170.649429 197.909225 169.277679 C 196.584152 168.37915 193.625473 165.637772 191.334396 163.18573 C 188.726227 160.394302 186.75798 157.095947 186.070007 154.363724 C 185.465668 151.963684 184.593399 150 184.131622 150 C 183.669861 150 182.119537 151.086639 180.686462 152.414764 C 179.253403 153.742889 177.78891 155.992889 177.432037 157.414764 C 177.075165 158.836639 177.047195 161.05188 177.369858 162.337524 C 177.692535 163.623154 178.937164 165.921692 180.135696 167.445389 C 181.334229 168.96907 184.156509 171.0354 186.407425 172.037231 C 188.65834 173.039047 192.132401 173.890518 194.127548 173.929367 Z M 234.599915 174 C 235.964951 174 240.008698 173.054428 243.585999 171.898712 C 249.230972 170.075012 251.29332 168.638138 259.197693 161.021774 C 268.305206 152.24614 268.305206 152.24614 267.713226 146.873062 C 267.387665 143.917877 266.40155 139.137497 265.521881 136.25 C 264.012482 131.295349 263.736206 131 260.610474 131 C 258.788849 131 255.768799 130.487671 253.899216 129.861481 C 252.029648 129.235291 249.459518 127.772797 248.18782 126.611481 C 246.916122 125.450165 245.258987 124.360352 244.505295 124.189667 C 243.751602 124.018982 242.65744 124.771545 242.073837 125.86203 C 241.168335 127.554001 241.598373 128.332642 245.006775 131.172363 C 247.74794 133.456177 249.628052 136.22084 251.000397 139.985886 C 252.100174 143.003113 253 147.187973 253 149.285538 C 253 151.383118 252.365173 154.314468 251.589279 155.799667 C 250.813385 157.284851 248.900879 159.670288 247.339279 161.100647 C 245.777679 162.531006 241.800003 165.186035 238.5 167.000687 C 235.199997 168.815353 232.11171 170.643341 231.637131 171.062897 C 231.162552 171.482468 231.076614 172.314941 231.446152 172.912872 C 231.815689 173.510788 233.234879 174 234.599915 174 Z M 217 164.331406 C 220.024994 164.054489 223.850006 163.482697 225.5 163.060776 C 227.149994 162.638855 230.878723 161.086761 233.786057 159.61171 C 236.887878 158.037964 239.88208 155.601364 241.032318 153.71489 C 242.110428 151.946701 242.994202 148.867599 242.996262 146.872452 C 242.998322 144.877289 242.408463 142.753952 241.685455 142.153915 C 240.6745 141.314896 239.483841 142.124161 236.529922 145.658005 C 234.109131 148.554031 230.655167 151.184143 227.188583 152.77121 C 223.684723 154.37532 219.294739 155.436295 215.094116 155.694183 C 209.541229 156.035095 207.868393 155.730911 204.5 153.767776 C 202.300003 152.485596 199.600006 150.005646 198.5 148.25679 C 197.399994 146.507919 195.9375 145.059708 195.25 145.038513 C 194.459671 145.01416 194 146.41655 194 148.852112 C 194 151.196609 194.880585 154.003494 196.25 156.023972 C 197.487503 157.849823 200.074997 160.234634 202 161.323578 C 203.925003 162.412506 206.850006 163.648026 208.5 164.069168 C 210.149994 164.490326 213.975006 164.608322 217 164.331406 Z M 131.325684 164 C 132.02655 164 133.139999 163.460007 133.800003 162.800003 C 134.460007 162.139999 135 160.348572 135 158.819046 C 135 156.662415 134.419769 155.892471 132.415359 155.389404 C 130.720367 154.963989 129.312592 155.258835 128.325394 156.246033 C 126.984955 157.586472 126.99704 158.093597 128.435715 160.875687 C 129.324326 162.594055 130.624802 164 131.325684 164 Z M 151.234283 162 C 151.989639 162 154.158447 160.386703 156.053833 158.414886 C 157.949219 156.443069 161.412506 153.700317 163.75 152.31987 C 166.938889 150.436615 168 149.18869 168 147.32164 C 168 145.953079 167.662506 144.98494 167.25 145.170242 C 166.837494 145.35553 164.699997 146.479904 162.5 147.668839 C 160.300003 148.857773 156.699997 151.683029 154.5 153.947174 C 152.300003 156.211334 150.356201 158.949463 150.18045 160.031921 C 149.992554 161.189133 150.426743 162 151.234283 162 Z M 139.943298 152 C 140.462112 152 141.582932 151.005829 142.434021 149.790726 C 143.520157 148.240067 143.666046 147.27121 142.923416 146.540726 C 142.187454 145.816818 141.429214 146.090927 140.432678 147.441132 C 139.644699 148.508759 139 149.971252 139 150.691132 C 139 151.411011 139.424484 152 139.943298 152 Z M 179.690979 142.98468 C 180.346024 142.993103 181.186768 142.506821 181.559311 141.904037 C 181.931839 141.301254 181.508408 140.079834 180.618332 139.189758 C 179.127228 137.698654 178.862427 137.709045 177.25 139.321884 C 175.719467 140.852798 175.68811 141.191284 177 142.020844 C 177.824997 142.542542 179.03595 142.976273 179.690979 142.98468 Z M 214.799667 141.969589 C 215.514465 141.986313 217.539474 141.255844 219.299667 140.346329 C 221.059845 139.436798 223.034012 137.974304 223.686691 137.096329 C 224.339386 136.218353 225.096344 134.668152 225.368851 133.651443 C 225.802139 132.034836 225.435394 131.883347 222.446167 132.444122 C 220.566193 132.796814 218.229431 132.657974 217.253372 132.135605 C 216.277313 131.61322 214.246002 131.421478 212.739349 131.709488 C 210.320969 132.171799 210 132.682358 210 136.066895 C 210 138.663101 210.564896 140.229645 211.75 140.919907 C 212.712494 141.480499 214.084854 141.952866 214.799667 141.969589 Z M 132.339081 141 C 132.830826 141 132.907425 139.762497 132.509308 138.25 C 132.111191 136.737503 131.564255 132.823196 131.2939 129.551544 C 130.998001 125.97081 131.32988 121.990402 132.127686 119.551544 C 132.856628 117.323196 133.609085 114.9375 133.799835 114.25 C 134.029587 113.421936 132.964569 113 130.64476 113 C 128.718704 113 126.453392 113.689453 125.61071 114.53215 C 124.768028 115.374832 123.78524 117.627823 123.426743 119.538818 C 123.068237 121.449814 123.094116 125.141922 123.484245 127.7435 C 123.874374 130.345078 124.822449 133.689758 125.591072 135.176117 C 126.359703 136.662476 127.991272 138.580902 129.216797 139.439301 C 130.442322 140.297684 131.847351 141 132.339081 141 Z M 298.13089 136 C 299.771729 136 302.072357 134.759064 304.144257 132.756454 C 307.5 129.512909 307.5 129.512909 298 128.814072 C 292.774994 128.429718 287.600006 128.20549 286.5 128.315765 C 284.987274 128.467422 285.836792 129.427948 289.986664 132.258148 C 293.004303 134.316162 296.66922 136 298.13089 136 Z M 156.294296 133 C 158.582214 133 160.399368 132.203796 162 130.5 C 163.291748 129.125 165.47226 128 166.845566 128 C 168.218887 128 170.131973 128.714447 171.096863 129.587646 C 172.061737 130.460861 173.67218 131.019623 174.675598 130.82933 C 176.003738 130.577469 176.58783 129.408432 176.822891 126.53157 C 177.058685 123.645706 176.669968 122.231842 175.38176 121.289886 C 174.411545 120.580444 171.341248 120.007401 168.558868 120.016449 C 165.180252 120.027435 162.202667 120.77475 159.594025 122.266449 C 157.445724 123.494904 154.7966 125.702362 153.707062 127.171921 C 152.617538 128.641464 151.998596 130.55397 152.331665 131.421921 C 152.716858 132.42572 154.158905 133 156.294296 133 Z M 145.54184 126.555954 C 146.256836 124.476166 148.046829 121.516785 149.519608 119.979538 C 150.992371 118.442291 154.874023 115.983337 158.145493 114.515198 C 161.416962 113.047058 166.435059 111.612518 169.296814 111.327393 C 173.651978 110.893433 175.070435 111.196533 178 113.187073 C 180.271683 114.730606 182.015594 117.045273 182.969162 119.782593 C 183.777206 122.102173 185.014709 124 185.719162 124 C 186.479385 124 187 122.764389 187 120.960159 C 187 119.288254 186.102066 116.160217 185.004578 114.008987 C 183.529999 111.118561 181.768143 109.541779 178.254578 107.968018 C 174.801117 106.421143 172.131729 105.950775 168.5 106.249176 C 165.75 106.475128 160.865753 107.91629 157.646103 109.451782 C 154.426468 110.987244 150.270248 113.579865 148.410049 115.21312 C 146.409866 116.969299 144.592422 119.799881 143.962158 122.140518 C 143.376007 124.317307 143.199158 127.052124 143.569138 128.21785 C 144.158493 130.074722 144.402954 129.868774 145.54184 126.555954 Z M 322.5 127.291397 C 323.600006 126.981644 325.184082 126.451859 326.020203 126.114105 C 326.856323 125.776352 329.772217 123.925003 332.5 122 C 335.227783 120.074997 338.143677 118.209259 338.979797 117.853897 C 339.815918 117.49855 341.695648 115.923553 343.156982 114.353897 C 344.618317 112.784241 346.589294 109.700012 347.536957 107.5 C 348.688568 104.826477 349.427094 99.697906 349.764038 92.034729 C 350.231964 81.392731 350.099243 80.251038 347.916016 76.13559 C 346.622314 73.696991 343.371582 69.968872 340.692139 67.850891 C 336.431152 64.482758 335.157501 64 330.532654 64 C 327.422455 64 324.801971 64.533691 324.169373 65.295929 C 323.57785 66.008667 322.815979 67.315948 322.476379 68.200958 C 322.021515 69.386292 322.622498 69.977814 324.75827 70.446899 C 326.352936 70.79715 329.738708 73.202393 332.282227 75.79187 C 334.825745 78.381348 337.878693 82.704987 339.066528 85.399994 C 340.610626 88.903198 341.087006 91.535858 340.73764 94.635437 C 340.468872 97.019928 338.986938 101.550354 337.444427 104.703094 C 335.901947 107.855835 332.882019 112.342438 330.733459 114.67334 C 328.5849 117.004242 324.728424 120.116119 322.163513 121.588608 C 319.598572 123.061111 317.086212 124.642349 316.580475 125.102463 C 316.049683 125.585388 316.683807 126.343918 318.080475 126.896805 C 319.411224 127.423584 321.399994 127.601151 322.5 127.291397 Z M 235 123.349487 C 235.824997 123.092102 236.920807 122.464874 237.43512 121.955643 C 237.949432 121.446411 238.562363 118.373505 238.797195 115.126968 C 239.165741 110.03186 238.92009 108.920074 237.001892 107.001892 C 235.146271 105.146271 234.104797 104.887543 230.689423 105.433685 C 228.439819 105.793396 226.037415 106.553986 225.350769 107.12384 C 224.664108 107.693726 223.588791 109.715942 222.961182 111.617645 C 221.930054 114.741989 222.073196 115.407196 224.446274 118.518448 C 225.890701 120.412186 228.518677 122.379181 230.28624 122.889542 C 232.053818 123.399902 234.175003 123.606888 235 123.349487 Z M 259 123.905746 C 259.825012 123.940735 261.11734 123.578308 261.871887 123.100342 C 262.626434 122.622375 263.076416 121.767929 262.871887 121.201569 C 262.667358 120.635208 261.693268 119.288971 260.707245 118.20993 C 259.721252 117.130905 258.64505 114.504745 258.315704 112.374023 C 257.986389 110.243317 257.589508 108.346405 257.433807 108.158691 C 257.278107 107.970978 256.285095 108.092133 255.227112 108.427917 C 254.169128 108.763702 252.785217 110.175964 252.151764 111.566284 C 251.518295 112.956573 251 115.353195 251 116.892059 C 251 118.430939 251.787506 120.376053 252.75 121.214523 C 253.712494 122.052994 255.175003 122.987213 256 123.290558 C 256.825012 123.593918 258.174988 123.870743 259 123.905746 Z M 294 114.678497 C 306.66275 114.458817 307.839081 114.267578 312.967468 111.595093 C 315.974579 110.028046 319.720428 107.369812 321.291565 105.687897 C 322.862701 104.005981 325.014832 100.931061 326.074097 98.854767 C 327.18634 96.674561 328 93.044464 328 90.262329 C 328 87.612823 327.342926 84.506897 326.539825 83.360321 C 325.736725 82.213745 323.719818 80.712372 322.0578 80.023926 C 320.395752 79.33551 318.301666 79.053986 317.404266 79.398376 C 316.051086 79.917633 315.887909 80.947174 316.44812 85.430939 C 316.990509 89.772308 316.735443 91.592194 315.153381 94.668701 C 314.069763 96.775909 311.904449 99.686127 310.341583 101.135834 C 308.778717 102.585541 306.059845 104.498047 304.299652 105.385834 C 302.539459 106.273621 299.029633 107 296.5 107 C 293.970367 107 290.460541 106.274628 288.700348 105.388062 C 286.940155 104.501465 284.069855 102.419556 282.32193 100.761597 C 279.938599 98.500946 278.545227 97.897308 276.750153 98.34787 C 275.433624 98.678284 273.572449 99.814972 272.614197 100.87381 C 271.655975 101.932648 270.832245 104.195557 270.783722 105.902496 C 270.735168 107.60965 271.514771 109.911316 272.516388 111.018127 C 273.517914 112.124786 275.723938 113.453796 277.418671 113.971466 C 279.113403 114.489166 286.575012 114.807327 294 114.678497 Z M 198.181641 113.387756 C 198.631729 113.109558 199 110.015656 199 106.512421 C 199 102.102051 198.524872 99.667725 197.455322 98.598175 C 196.605759 97.748627 194.243256 96.555847 192.205322 95.947601 C 190.167404 95.339355 186.699997 94.989807 184.5 95.170837 C 180.5 95.5 180.5 95.5 185.144608 98.230377 C 187.699142 99.732086 190.932449 102.319458 192.329742 103.980042 C 193.727051 105.640625 195.431213 108.550507 196.116776 110.446411 C 196.802353 112.342316 197.731537 113.665924 198.181641 113.387756 Z M 208.918579 112 C 210.098694 112 212.608765 111.354645 214.496521 110.565887 C 216.73233 109.631714 218.153885 108.235046 218.574463 106.559326 C 218.929581 105.14447 218.933685 102.460022 218.583603 100.593903 C 218.233505 98.727783 217.246262 96.619354 216.389709 95.908478 C 215.264648 94.974762 214.369858 94.906769 213.166183 95.663574 C 212.249786 96.239746 210.748215 98.013641 209.829376 99.60556 C 208.910538 101.19751 207.846939 104.637512 207.465836 107.25 C 206.823074 111.656128 206.928253 112 208.918579 112 Z M 296.615143 97.969604 C 300.308563 97.991547 302.462341 97.424164 304.364105 95.928253 C 305.812714 94.788757 307.271912 92.764771 307.606812 91.430481 C 307.941681 90.096161 307.944031 88.296509 307.611969 87.431213 C 307.084015 86.055389 306.643188 86.117889 304.099762 87.928955 C 302.500092 89.068024 299.813507 90 298.129547 90 C 296.445618 90 293.4776 90.758331 291.533936 91.685211 C 289.590271 92.612091 288 93.939728 288 94.635529 C 288 95.331329 288.787506 96.359283 289.75 96.919891 C 290.712494 97.480499 293.801819 97.952881 296.615143 97.969604 Z M 160.676086 94.508789 C 163.329239 94.159058 166.175003 93.773468 167 93.651947 C 168.016495 93.502228 167.615936 92.842529 165.757278 91.605286 C 163.985672 90.425964 162.137054 89.999786 160.536148 90.401581 C 159.173019 90.743683 157.561478 91.950867 156.954956 93.084167 C 155.894073 95.066437 156.035446 95.120544 160.676086 94.508789 Z M 258.995453 86.711426 C 260.261108 86.380463 262.917389 84.802216 264.898315 83.204224 C 267.466644 81.132355 268.592621 79.358704 268.822845 77.022217 C 269.000397 75.220123 268.687927 73.287933 268.128479 72.728485 C 267.438873 72.038879 266.142883 72.112396 264.10437 72.956757 C 262.450592 73.641785 260.41095 75.250061 259.571838 76.530731 C 258.732697 77.811401 257.741974 80.761353 257.370239 83.086212 C 256.722839 87.134705 256.791473 87.287781 258.995453 86.711426 Z M 289 82.694794 C 292.053589 82.524841 292.541779 82.134674 292.827454 79.635559 C 293.063721 77.568939 292.367432 75.947449 290.327454 73.81369 C 288.035919 71.416779 286.940491 70.967529 284.548065 71.443481 C 282.92453 71.766479 280.562012 73.002289 279.298065 74.189697 C 278.034119 75.377106 277 77.115601 277 78.052979 C 277 78.992432 278.234192 80.226105 279.75 80.801788 C 281.262512 81.376221 283.174988 82.080963 284 82.367889 C 284.825012 82.654816 287.075012 82.801941 289 82.694794 Z M 303.367645 77 C 304.750519 77 306.191162 76.499695 306.569092 75.888184 C 306.947021 75.276703 306.636078 74.377258 305.878113 73.889435 C 305.120148 73.401642 303.83017 73.119598 303.011475 73.262726 C 302.19281 73.405853 301.372314 74.305298 301.188171 75.261475 C 300.941803 76.540649 301.5177 77 303.367645 77 Z M 89.63353 68 C 92.019302 68 96.115257 67.521912 98.735649 66.937622 C 101.356041 66.353302 106.425003 64.959076 110 63.839386 C 113.574997 62.719666 119.650002 59.820618 123.5 57.397034 C 127.349998 54.97345 131.295227 51.885254 132.267181 50.534363 C 133.23912 49.183502 134.293137 46.784302 134.609436 45.20282 C 135.000366 43.248169 134.651764 41.794617 133.520828 40.663696 C 132.278366 39.421234 130.040268 39 124.681046 39 C 119.375328 39 115.158539 39.781799 108.502472 41.999573 C 103.551109 43.649353 94.775002 47.361847 89 50.249573 C 78.5 55.5 78.5 55.5 78.5 59.460175 C 78.5 62.847473 78.991524 63.751587 81.897881 65.710175 C 84.141991 67.222473 86.768684 68 89.63353 68 Z M 343.087708 48 C 344.067871 48 345.96524 47.583527 347.304077 47.074493 C 348.716461 46.537506 349.936768 45.111115 350.210999 43.676636 C 350.470917 42.316864 350.478729 39.80835 350.228302 38.102142 C 349.825714 35.359192 349.39505 35 346.508942 35 C 344.713715 35 342.805084 35.5625 342.267548 36.25 C 341.72998 36.9375 340.83963 38.850006 340.28894 40.5 C 339.618652 42.508331 339.621216 44.243744 340.296661 45.75 C 340.851593 46.987488 342.107574 48 343.087708 48 Z M 336.597778 33.324097 C 337.368988 33.028168 338 32.02417 338 31.093018 C 338 30.161865 337.459991 28.859985 336.799988 28.200012 C 336.140015 27.540009 335.23999 27 334.799988 27 C 334.359985 27 334 28.274994 334 29.833344 C 334 31.391663 334.268982 32.935669 334.597778 33.264435 C 334.926544 33.593201 335.826538 33.620056 336.597778 33.324097 Z M 323.857819 26 C 324.914154 26 326.803314 25.170105 328.055969 24.155762 C 329.513092 22.97583 330.104645 21.715088 329.698151 20.655762 C 329.348694 19.745087 327.993378 19 326.686371 19 C 325.379364 19 323.510651 19.88324 322.533691 20.962769 C 321.556763 22.042267 321.022888 23.617279 321.347321 24.462769 C 321.671783 25.308228 322.801514 26 323.857819 26 Z M 73.666664 19 C 75.074074 19 76 18.404755 76 17.5 C 76 16.576324 75.062111 16 73.559013 16 C 72.216476 16 70.878708 16.387238 70.586205 16.860535 C 70.293694 17.333801 70.34214 18.00882 70.693855 18.360535 C 71.04557 18.712219 72.383331 19 73.666664 19 Z"/>
</svg>
