<?xml version="1.0" encoding="UTF-8"?>
<!-- Generated by Pixelmator Pro 3.6.4 -->
<svg width="312" height="312" viewBox="0 0 312 312" xmlns="http://www.w3.org/2000/svg">
    <path id="Shape" fill="#ffffff" fill-rule="evenodd" stroke="none" d="M 187.027496 307.960846 C 184.537369 307.939331 181.149994 307.319122 179.5 306.582642 C 177.850006 305.846161 175.226913 303.889496 173.670914 302.234528 C 172.114929 300.579559 170.262939 297.541565 169.555389 295.483459 C 168.759109 293.167236 168.555435 290.471161 169.020813 288.407684 C 169.434357 286.574158 170.724243 283.594818 171.887253 281.786987 C 173.050262 279.979126 175.294418 275.799988 176.874268 272.5 C 178.454117 269.200012 180.942688 262.403229 182.404419 257.396057 C 183.866165 252.388855 186.210373 242.488861 187.613785 235.396042 C 189.45578 226.08667 190.324554 217.771942 190.737488 205.5 C 191.052109 196.149994 190.863205 184.863388 190.317688 180.41864 C 189.772186 175.973907 188.465042 170.573898 187.412933 168.41864 C 185.791382 165.096893 185.061523 164.531357 182.621414 164.705872 C 181.038193 164.819092 177.294937 166.394104 174.30307 168.205872 C 171.311188 170.017639 165.181564 174.464798 160.681656 178.088455 C 156.181747 181.712097 150.465195 186.662109 147.978226 189.088455 C 145.164215 191.833862 142.981506 195.091461 142.198929 197.713821 C 141.507278 200.031418 139.954453 202.618927 138.748199 203.463821 C 137.541931 204.308716 135.614304 205 134.464584 205 C 133.314865 205 131.156128 203.728622 129.667389 202.174728 C 128.178665 200.620819 126.51947 197.811295 125.980301 195.93132 C 125.441132 194.051361 125 190.647583 125 188.367386 C 125 185.893234 125.705627 183.366791 126.75 182.101669 C 127.712494 180.935715 130.84639 179.380966 133.714188 178.646652 C 136.581985 177.912354 142.656982 175.14505 147.214188 172.497101 C 151.771378 169.849152 159.018753 165.926773 163.319458 163.780701 C 167.620163 161.634613 173.69516 158.927704 176.819458 157.765335 C 179.943756 156.602966 183.0625 155.225143 183.75 154.703522 C 184.547638 154.098328 185 151.134079 185 146.512421 C 185 140.752213 184.585175 138.742355 182.973389 136.693298 C 181.858765 135.276276 180.259918 132.472992 179.42041 130.463776 C 178.036758 127.152191 178.046509 126.577957 179.524811 124.321808 C 180.421722 122.952927 182.681107 121.195541 184.54567 120.416473 C 186.410217 119.637421 189.54567 119 191.513336 119 C 194.017441 119 195.858231 119.767319 197.648178 121.557266 C 199.789612 123.6987 200.105591 124.714996 199.591354 127.807266 C 199.253601 129.838272 198.70134 135.205124 198.36409 139.733597 C 197.836044 146.824066 197.980194 148.055176 199.402359 148.600906 C 200.310654 148.949448 207.623367 147.590042 215.652847 145.580017 C 223.682312 143.569977 235.032715 141.455994 240.875946 140.882263 C 246.719177 140.308548 254.294586 140.047073 257.710205 140.301224 C 262.006378 140.62088 265.317871 141.582275 268.45462 143.420547 C 270.948456 144.882019 273.681732 147.417633 274.528564 149.055252 C 275.774902 151.465393 275.859344 152.80867 274.97168 156.105118 C 274.300781 158.59671 272.249603 161.792816 269.687561 164.33876 C 267.384399 166.627441 262.593719 170.038879 259.041565 171.919724 C 255.489441 173.800583 250.013184 176.139328 246.872101 177.116943 C 243.731018 178.094559 235.387299 179.418228 228.330521 180.058426 C 218.413361 180.95813 213.960785 180.948318 208.721252 180.015259 C 204.992935 179.351318 201.280426 179.062149 200.471252 179.372665 C 199.230057 179.848953 198.999466 183.890549 198.996582 205.218613 C 198.994705 219.123383 198.519196 235.675003 197.93988 242 C 197.36058 248.324997 196.012115 257.845703 194.943298 263.157074 C 193.874481 268.468475 193 275.120941 193 277.940338 C 193 281.347687 193.796936 284.64801 195.376785 287.783234 C 196.684021 290.377441 198.062561 293.929657 198.440216 295.677002 C 198.895157 297.781982 198.601227 299.870483 197.569138 301.866302 C 196.712387 303.523071 195.008728 305.580902 193.783203 306.439301 C 192.531143 307.316284 189.571564 307.982849 187.027496 307.960846 Z M 77.348869 195.996262 C 75.78199 195.994202 73.110085 195.144958 71.411301 194.109055 C 69.712517 193.073151 67.40667 191.061157 66.287201 189.637985 C 65.167725 188.214798 63.502617 185.471619 62.58696 183.542007 C 61.671303 181.612396 60.827255 178.788559 60.711311 177.266815 C 60.545578 175.09169 61.695885 173.323822 66.090309 169 C 70.532005 164.629684 72.522255 161.548737 75.780144 154 C 78.035149 148.774994 82.130791 137.75 84.881569 129.5 C 87.632339 121.25 92.655968 105.274994 96.045181 94 C 99.434402 82.725006 102.453285 70.613434 102.753822 67.085419 C 103.264771 61.08725 103.176888 60.717743 101.400124 61.393951 C 100.355057 61.791656 97.650963 63.19751 95.391022 64.518036 C 93.131081 65.838593 88.964287 68.751099 86.131462 70.990326 C 83.298645 73.229523 78.919907 77.635254 76.40094 80.780823 C 73.881966 83.926361 70.312614 89.649994 68.46904 93.5 C 66.625465 97.350006 64.394737 101.512497 63.511856 102.75 C 62.580994 104.054764 60.856888 105 59.40786 105 C 58.033539 105 55.804543 103.895462 54.454544 102.545456 C 52.503525 100.594437 52 99.065979 52 95.094666 C 52 92.346741 52.492508 87.801971 53.094452 84.995178 C 53.696404 82.188385 55.158905 78.788116 56.344452 77.439056 C 57.724297 75.868927 60.226219 74.67215 63.296852 74.113464 C 65.935112 73.633453 70.210114 71.919434 72.796852 70.304535 C 75.383583 68.689636 82.668037 64.022949 88.984528 59.934174 C 95.301018 55.845367 101.601013 51.526276 102.984528 50.336182 C 105.347908 48.303162 105.498016 47.599335 105.467163 38.69574 C 105.444 32.012238 104.856209 27.492096 103.47287 23.359558 C 102.394073 20.13681 101.36554 16.477966 101.187241 15.228821 C 101.008949 13.979675 101.825218 11.400848 103.001183 9.498077 C 104.457703 7.141388 106.363342 5.671814 108.97905 4.888123 C 111.090927 4.255402 113.988724 4.031342 115.41861 4.390228 C 116.852753 4.750153 119.392532 6.93869 121.083145 9.271362 C 123.268158 12.286163 124.00061 14.237946 123.634781 16.070831 C 123.35257 17.484772 121.728699 22.148254 120.026184 26.434113 C 118.323654 30.71994 116.652985 36.252563 116.313583 38.728821 C 115.739365 42.918182 115.837158 43.186462 117.720444 42.588715 C 118.833618 42.235413 123.51442 40.436768 128.122208 38.591766 C 132.729996 36.746735 140.012375 34.067627 144.305283 32.638214 C 148.59819 31.208801 155.025803 29.531616 158.588882 28.911133 C 162.151947 28.290649 167.176514 28.099304 169.754562 28.485901 C 173.291748 29.016327 175.246521 30.041962 177.720963 32.665619 C 180.127884 35.217682 181 37.064941 181 39.611053 C 181 41.518799 180.137924 44.76947 179.08429 46.834778 C 178.03064 48.900085 175.191956 52.411865 172.776093 54.638733 C 170.360229 56.865601 165.484802 60.28125 161.941803 62.229065 C 158.398819 64.176849 152.463165 66.961182 148.751495 68.416443 C 144.590912 70.047699 139.030411 71.290283 134.251495 71.656677 C 128.65596 72.085724 124.712723 71.792114 120.074081 70.601135 C 114.929657 69.280273 113.487076 69.205383 112.840408 70.225616 C 112.396149 70.926544 109.992615 77.895569 107.499222 85.712402 C 105.005829 93.529236 101.384537 105.67923 99.451904 112.712402 C 97.519272 119.745575 95.060089 130.114014 93.987053 135.753372 C 92.914024 141.392731 91.076813 151.067734 89.904358 157.253372 C 88.180405 166.348663 87.901466 170.404068 88.446152 178.453949 C 88.920776 185.468521 88.763947 189.072556 87.91507 190.658707 C 87.252541 191.896652 85.24511 193.604874 83.454109 194.454758 C 81.663109 195.304642 78.915749 195.998322 77.348869 195.996262 Z M 135.056702 196 C 135.575516 196 136 195.200134 136 194.222504 C 136 193.244888 135.299484 191.444885 134.443298 190.222504 C 133.587112 189.000122 132.462112 188 131.943298 188 C 131.424484 188 131 188.799866 131 189.777496 C 131 190.755112 131.700516 192.555115 132.556702 193.777496 C 133.412888 194.999878 134.537888 196 135.056702 196 Z M 76.948982 188 C 79.097771 188 81.29258 187.352386 81.989433 186.512741 C 82.668304 185.694733 82.962532 184.344742 82.643257 183.512741 C 82.274811 182.552567 80.756233 182 78.485931 182 C 75.97467 182 74.140709 181.231613 72.329857 179.420776 C 70.911285 178.002197 69.064384 176.578201 68.225639 176.256348 C 66.987694 175.781296 66.835541 176.208588 67.417274 178.526413 C 67.811417 180.096802 68.550827 182.160706 69.060402 183.112854 C 69.569977 184.065018 70.696991 185.554138 71.56488 186.422028 C 72.449394 187.306534 74.815498 188 76.948982 188 Z M 221.17717 173 C 224.948914 173 232.414536 172.054337 237.767456 170.898529 C 243.120361 169.742706 249.975006 167.794693 253 166.56958 C 256.024994 165.344482 260.412506 163.134491 262.75 161.658508 C 266.69104 159.169998 267 158.657578 267 154.609894 C 267 151.962509 266.413574 149.758209 265.509735 149.008072 C 264.690063 148.32782 261.202576 147.551086 257.759735 147.281982 C 254.316864 147.012878 246.100006 147.535034 239.5 148.442322 C 232.899994 149.349609 223.676071 150.989273 219.00238 152.086029 C 214.32869 153.18277 208.135651 155.164734 205.240067 156.490372 C 202.344482 157.81601 199.706421 159.601471 199.377731 160.458038 C 199.049026 161.314606 199.485779 163.092453 200.348282 164.408798 C 201.2108 165.725159 204.707153 168.196671 208.117966 169.901077 C 213.243164 172.462173 215.509613 173 221.17717 173 Z M 129.090042 64.996277 C 131.614563 64.998322 137.239563 64.092834 141.590042 62.9841 C 145.940521 61.875366 152.733597 59.436249 156.685791 57.563873 C 160.63797 55.691498 165.896423 52.293121 168.371231 50.011932 C 170.941315 47.642914 173.153397 44.578094 173.529663 42.86499 C 174.002304 40.713013 173.69426 39.319641 172.439224 37.932831 C 171.037292 36.383728 169.341354 36 163.896637 36 C 159.380508 36 154.379883 36.860321 148.97908 38.566437 C 144.510788 39.977966 136.51355 43.147797 131.207443 45.610535 C 125.901352 48.073273 120.758987 50.81311 119.779999 51.699097 C 118.659027 52.713562 118 54.738983 118 57.169678 C 118 60.45108 118.486954 61.326294 121.25 63.010956 C 123.23967 64.224091 126.279999 64.993988 129.090042 64.996277 Z M 112 12.786011 C 109.576752 13.715912 109.15332 14.439056 109.495636 14.99295 C 109.837952 15.546814 110.96492 16 112 16 C 113.03508 16 114.162048 15.546814 114.504364 14.99295 C 114.84668 14.439056 114.423248 13.715912 113.563385 13.385956 L 112 12.786011 Z"/>
</svg>
